# Blender 4.0.2
# www.blender.org
mtllib area.mtl
o Cube
v 1.000000 1.000000 -1.000000
v 1.000000 -1.000000 -1.000000
v 1.000000 1.000000 1.000000
v 1.000000 -1.000000 1.000000
v -1.000000 1.000000 -1.000000
v -1.000000 -1.000000 -1.000000
v -1.000000 1.000000 1.000000
v -1.000000 -1.000000 1.000000
vn -0.0000 1.0000 -0.0000
vn -0.0000 -0.0000 1.0000
vn -1.0000 -0.0000 -0.0000
vn -0.0000 -1.0000 -0.0000
vn 1.0000 -0.0000 -0.0000
vn -0.0000 -0.0000 -1.0000
vt 0.0000 0.0000
vt 1.0000 0.0000
vt 0.0000 1.0000
vt 1.0000 1.0000
s 0
usemtl Material
f 1/4/1 5/3/1 7/1/1 3/2/1
f 4/4/2 3/3/2 7/1/2 8/2/2
f 8/4/3 7/3/3 5/1/3 6/2/3
f 6/4/4 2/3/4 4/1/4 8/2/4
f 2/4/5 1/3/5 3/1/5 4/2/5
f 6/4/6 5/3/6 1/1/6 2/2/6
