{
	"asset":{
		"generator":"Khronos glTF Blender I/O v4.5.47",
		"version":"2.0"
	},
	"extensionsUsed":[
		"KHR_materials_specular"
	],
	"scene":0,
	"scenes":[
		{
			"name":"Scene",
			"nodes":[
				0
			]
		}
	],
	"nodes":[
		{
			"mesh":0,
			"name":"SM_Desert_Terrain",
			"rotation":[
				1,
				0,
				0,
				0
			]
		}
	],
	"materials":[
		{
			"extensions":{
				"KHR_materials_specular":{
					"specularFactor":0
				}
			},
			"name":"MI_Desert_Terrain_1",
			"normalTexture":{
				"index":0
			},
			"pbrMetallicRoughness":{
				"baseColorTexture":{
					"index":1
				},
				"metallicRoughnessTexture":{
					"index":2
				}
			}
		}
	],
	"meshes":[
		{
			"name":"SM_Desert_Terrain_1",
			"primitives":[
				{
					"attributes":{
						"POSITION":0,
						"NORMAL":1,
						"TEXCOORD_0":2,
						"TEXCOORD_1":3
					},
					"indices":4,
					"material":0
				}
			]
		}
	],
	"textures":[
		{
			"sampler":0,
			"source":0
		},
		{
			"sampler":0,
			"source":1
		},
		{
			"sampler":0,
			"source":2
		}
	],
	"images":[
		{
			"mimeType":"image/png",
			"name":"T_Desert_Terrain_1_Normal",
			"uri":"textures/T_Desert_Terrain_1_Normal.png"
		},
		{
			"mimeType":"image/png",
			"name":"MI_Desert_Terrain_1_BaseColor",
			"uri":"textures/MI_Desert_Terrain_1_BaseColor.png"
		},
		{
			"mimeType":"image/png",
			"name":"MI_Desert_Terrain_1_MetallicRoughness",
			"uri":"textures/MI_Desert_Terrain_1_MetallicRoughness.png"
		}
	],
	"accessors":[
		{
			"bufferView":0,
			"componentType":5126,
			"count":5041,
			"max":[
				10,
				0.7469000220298767,
				10
			],
			"min":[
				-10,
				0.001779999933205545,
				-10
			],
			"type":"VEC3"
		},
		{
			"bufferView":1,
			"componentType":5126,
			"count":5041,
			"type":"VEC3"
		},
		{
			"bufferView":2,
			"componentType":5126,
			"count":5041,
			"type":"VEC2"
		},
		{
			"bufferView":3,
			"componentType":5126,
			"count":5041,
			"type":"VEC2"
		},
		{
			"bufferView":4,
			"componentType":5123,
			"count":29400,
			"type":"SCALAR"
		}
	],
	"bufferViews":[
		{
			"buffer":0,
			"byteLength":60492,
			"byteOffset":0,
			"target":34962
		},
		{
			"buffer":0,
			"byteLength":60492,
			"byteOffset":60492,
			"target":34962
		},
		{
			"buffer":0,
			"byteLength":40328,
			"byteOffset":120984,
			"target":34962
		},
		{
			"buffer":0,
			"byteLength":40328,
			"byteOffset":161312,
			"target":34962
		},
		{
			"buffer":0,
			"byteLength":58800,
			"byteOffset":201640,
			"target":34963
		}
	],
	"samplers":[
		{
			"magFilter":9729,
			"minFilter":9987
		}
	],
	"buffers":[
		{
			"byteLength":260440,
			"uri":"Desert_Terrain.bin"
		}
	]
}
