# Blender 4.3.2
# www.blender.org
mtllib tree_low.mtl
o Reef
v 0.000000 3.137819 -2.901461
v 0.000000 7.141698 -0.000001
v 2.759453 3.272764 -0.896601
v 1.705436 3.272764 2.347331
v -1.705436 3.272764 2.347331
v -2.759453 3.272764 -0.896601
v 0.000000 5.478337 -0.863258
v 0.821007 5.478337 -0.266761
v 0.507410 5.478337 0.698391
v -0.507410 5.478337 0.698391
v -0.821007 5.478337 -0.266761
v -1.219624 5.249425 -1.831155
v 0.060503 8.851753 0.003197
v 1.364647 5.249425 -1.725790
v 2.063023 5.249425 0.764558
v -0.089629 5.249425 2.198313
v -2.118416 5.249425 0.594074
v -0.478538 7.224427 -0.718483
v 0.535440 7.224427 -0.677141
v 0.809459 7.224427 0.299985
v -0.035167 7.224427 0.862541
v -0.831193 7.224427 0.233093
v 0.473333 6.967243 -2.018606
v 0.275606 11.119860 0.013049
v 2.066076 6.967243 -0.173618
v 0.803572 6.967243 1.911304
v -1.569441 6.967243 1.354868
v -1.773540 6.967243 -1.073951
v 0.239831 8.988485 -0.838203
v 0.998493 8.931600 -0.064980
v 0.377328 8.988485 0.798045
v -0.653449 9.013950 0.564109
v -0.738427 9.013950 -0.447148
vn 0.5420 0.3871 -0.7459
vn 0.8769 0.3871 0.2849
vn -0.0000 0.3871 0.9220
vn -0.8769 0.3871 0.2849
vn -0.5420 0.3871 -0.7459
vn -0.0000 -0.9998 0.0186
vn -0.4612 0.5871 -0.6653
vn -0.7617 0.5988 0.2475
vn -0.0000 0.5988 0.8009
vn 0.7617 0.5988 0.2475
vn 0.4612 0.5871 -0.6653
vn 0.0374 0.3947 -0.9180
vn 0.8959 0.3665 -0.2512
vn 0.5135 0.3769 0.7709
vn -0.5655 0.4109 0.7151
vn -0.8503 0.4214 -0.3151
vn -0.0000 -1.0000 -0.0000
vn -0.8224 0.4803 -0.3048
vn -0.5440 0.4803 0.6880
vn 0.4862 0.4803 0.7300
vn 0.8445 0.4803 -0.2368
vn 0.0357 0.4803 -0.8764
vn 0.6995 0.2549 -0.6676
vn 0.7949 0.2428 0.5561
vn -0.2012 0.3301 0.9223
vn -0.9044 0.4200 0.0758
vn -0.9048 0.4191 0.0760
vn -0.9043 0.4200 0.0758
vn -0.3392 0.3538 -0.8716
vn -0.3412 0.4370 -0.8322
vn -0.8989 0.4315 0.0755
vn -0.2006 0.4350 0.8778
vn 0.7716 0.4115 0.4851
vn 0.6807 0.4170 -0.6023
vt 1.000000 0.750000
vt 0.800000 1.000000
vt 0.800000 0.750000
vt 0.600000 1.000000
vt 0.600000 0.750000
vt 0.400000 1.000000
vt 0.400000 0.750000
vt 0.200000 1.000000
vt 0.200000 0.750000
vt 0.000000 1.000000
vt 0.000000 0.750000
vt 0.750000 0.490000
vt 0.978254 0.324164
vt 0.891068 0.055836
vt 0.608932 0.055836
vt 0.521746 0.324164
vt 0.200000 0.500000
vt 0.000000 0.500000
vt 0.400000 0.500000
vt 0.600000 0.500000
vt 0.800000 0.500000
vt 1.000000 0.500000
s 1
f 7/1/1 2/2/1 8/3/1
f 8/3/2 2/4/2 9/5/2
f 9/5/3 2/6/3 10/7/3
f 10/7/4 2/8/4 11/9/4
f 11/9/5 2/10/5 7/11/5
f 1/12/6 3/13/6 4/14/6 5/15/6 6/16/6
f 6/17/7 11/9/7 7/11/7 1/18/7
f 5/19/8 10/7/8 11/9/8 6/17/8
f 4/20/9 9/5/9 10/7/9 5/19/9
f 3/21/10 8/3/10 9/5/10 4/20/10
f 1/22/11 7/1/11 8/3/11 3/21/11
f 18/1/12 13/2/12 19/3/12
f 19/3/13 13/4/13 20/5/13
f 20/5/14 13/6/14 21/7/14
f 21/7/15 13/8/15 22/9/15
f 22/9/16 13/10/16 18/11/16
f 12/12/17 14/13/17 15/14/17 16/15/17 17/16/17
f 17/17/18 22/9/18 18/11/18 12/18/18
f 16/19/19 21/7/19 22/9/19 17/17/19
f 15/20/20 20/5/20 21/7/20 16/19/20
f 14/21/21 19/3/21 20/5/21 15/20/21
f 12/22/22 18/1/22 19/3/22 14/21/22
f 29/1/23 24/2/23 30/3/23
f 30/3/24 24/4/24 31/5/24
f 31/5/25 24/6/25 32/7/25
f 32/7/26 24/8/27 33/9/28
f 33/9/29 24/10/29 29/11/29
f 23/12/17 25/13/17 26/14/17 27/15/17 28/16/17
f 28/17/30 33/9/30 29/11/30 23/18/30
f 27/19/31 32/7/26 33/9/28 28/17/31
f 26/20/32 31/5/32 32/7/32 27/19/32
f 25/21/33 30/3/33 31/5/33 26/20/33
f 23/22/34 29/1/34 30/3/34 25/21/34
o Tree
v 0.000000 -0.000000 -0.492062
v -0.467979 -0.000000 -0.152055
v -0.289227 0.000000 0.398086
v 0.289227 0.000000 0.398086
v 0.467979 -0.000000 -0.152055
v 0.000000 -0.000000 -0.492062
v -0.467979 -0.000000 -0.152055
v -0.289227 0.000000 0.398086
v 0.289227 0.000000 0.398086
v 0.467979 -0.000000 -0.152055
v 0.381052 2.762627 -0.371290
v 0.027934 2.762627 -0.114735
v 0.162813 2.762627 0.300381
v 0.599291 2.762627 0.300381
v 0.734170 2.762627 -0.114735
v 0.013609 5.987961 -0.159012
v -0.137622 5.987961 -0.049137
v -0.079857 5.987961 0.128645
v 0.107075 5.987961 0.128645
v 0.164840 5.987961 -0.049137
vn -0.0000 -0.0000 1.0000
vn 0.5872 -0.0457 -0.8082
vn -0.0000 0.0353 0.9994
vn -0.5838 0.1157 -0.8036
vn 0.9467 -0.0954 0.3076
vn -0.9381 0.1643 0.3048
vn 0.9389 0.1595 0.3051
vn -0.9496 -0.0550 0.3085
vn 0.5836 0.1193 -0.8032
vn -0.0000 0.0532 0.9986
vn -0.5877 -0.0137 -0.8089
vt 0.000000 0.000000
s 0
f 38/23/35 43/23/35 42/23/35 37/23/35
f 36/23/35 41/23/35 40/23/35 35/23/35
f 34/23/35 39/23/35 43/23/35 38/23/35
f 37/23/35 42/23/35 41/23/35 36/23/35
f 35/23/35 40/23/35 39/23/35 34/23/35
s 1
f 39/23/36 44/23/36 48/23/36 43/23/36
f 42/23/37 47/23/37 46/23/37 41/23/37
f 40/23/38 45/23/38 44/23/38 39/23/38
f 43/23/39 48/23/39 47/23/39 42/23/39
f 41/23/40 46/23/40 45/23/40 40/23/40
f 48/23/41 53/23/41 52/23/41 47/23/41
f 46/23/42 51/23/42 50/23/42 45/23/42
f 44/23/43 49/23/43 53/23/43 48/23/43
f 47/23/44 52/23/44 51/23/44 46/23/44
f 45/23/45 50/23/45 49/23/45 44/23/45
