{
	"asset":{
		"generator":"Khronos glTF Blender I/O v5.1.20",
		"version":"2.0"
	},
	"extensionsUsed":[
		"KHR_texture_transform"
	],
	"extensionsRequired":[
		"KHR_texture_transform"
	],
	"scene":0,
	"scenes":[
		{
			"name":"Scene",
			"nodes":[
				0,
				1,
				2,
				3,
				4,
				5,
				6,
				7,
				8,
				9,
				10,
				11,
				12,
				13,
				14,
				15,
				16,
				17,
				18,
				19
			]
		}
	],
	"nodes":[
		{
			"mesh":0,
			"name":"NODE_AddInstancedStaticMeshComponent-3:0",
			"translation":[
				0,
				0,
				2
			]
		},
		{
			"mesh":0,
			"name":"NODE_AddInstancedStaticMeshComponent-3:1",
			"rotation":[
				0.7071068286895752,
				0.7071068286895752,
				0,
				4.329781625202257e-17
			],
			"translation":[
				0,
				0,
				-2
			]
		},
		{
			"mesh":1,
			"name":"NODE_AddInstancedStaticMeshComponent-4:0",
			"rotation":[
				0.70710688829422,
				0,
				0,
				0.7071066498756409
			],
			"translation":[
				0,
				2,
				2
			]
		},
		{
			"mesh":1,
			"name":"NODE_AddInstancedStaticMeshComponent-4:1",
			"rotation":[
				-0.70710688829422,
				0,
				0,
				0.7071066498756409
			],
			"translation":[
				0,
				2,
				-2
			]
		},
		{
			"mesh":1,
			"name":"NODE_AddInstancedStaticMeshComponent-4:2",
			"scale":[
				1,
				1,
				2
			],
			"translation":[
				0,
				3,
				0
			]
		},
		{
			"mesh":1,
			"name":"NODE_AddInstancedStaticMeshComponent-4:3",
			"rotation":[
				-0.5,
				-0.5,
				0.5,
				0.5
			],
			"translation":[
				2,
				0,
				-2
			]
		},
		{
			"mesh":1,
			"name":"NODE_AddInstancedStaticMeshComponent-4:4",
			"rotation":[
				0.5,
				0.5,
				0.5,
				0.5
			],
			"translation":[
				2,
				0,
				2
			]
		},
		{
			"mesh":1,
			"name":"NODE_AddInstancedStaticMeshComponent-4:5",
			"rotation":[
				0.7071068286895752,
				0.7071068286895752,
				0,
				4.329780963457767e-17
			],
			"scale":[
				1,
				1,
				2.000000476837158
			],
			"translation":[
				3,
				0,
				0
			]
		},
		{
			"mesh":2,
			"name":"NODE_AddInstancedStaticMeshComponent-2:0",
			"scale":[
				1,
				1,
				2
			]
		},
		{
			"mesh":3,
			"name":"NODE_AddInstancedStaticMeshComponent-1:0",
			"translation":[
				0,
				3,
				2
			]
		},
		{
			"mesh":3,
			"name":"NODE_AddInstancedStaticMeshComponent-1:1",
			"rotation":[
				-0.70710688829422,
				0,
				0,
				0.7071066498756409
			],
			"translation":[
				0,
				3,
				-2
			]
		},
		{
			"mesh":3,
			"name":"NODE_AddInstancedStaticMeshComponent-1:2",
			"rotation":[
				0.7071068286895752,
				0.7071068286895752,
				0,
				4.329780963457767e-17
			],
			"translation":[
				3,
				0,
				-2
			]
		},
		{
			"mesh":3,
			"name":"NODE_AddInstancedStaticMeshComponent-1:3",
			"rotation":[
				0.5,
				0.5,
				0.5,
				0.5
			],
			"translation":[
				3,
				0,
				2
			]
		},
		{
			"mesh":4,
			"name":"NODE_AddInstancedStaticMeshComponent-0:0",
			"scale":[
				1,
				1,
				2
			],
			"translation":[
				0,
				1,
				0
			]
		},
		{
			"mesh":4,
			"name":"NODE_AddInstancedStaticMeshComponent-0:1",
			"rotation":[
				0.7071068286895752,
				0.7071068286895752,
				0,
				4.329780963457767e-17
			],
			"scale":[
				1,
				1,
				2.000000476837158
			],
			"translation":[
				1,
				0,
				0
			]
		},
		{
			"mesh":5,
			"name":"NODE_AddInstancedStaticMeshComponent-7:0",
			"scale":[
				0.9990000128746033,
				0.6000000238418579,
				1
			],
			"translation":[
				0,
				0,
				3
			]
		},
		{
			"mesh":5,
			"name":"NODE_AddInstancedStaticMeshComponent-7:1",
			"rotation":[
				1,
				0,
				0,
				6.123234262925839e-17
			],
			"scale":[
				0.9990000128746033,
				0.6000000238418579,
				1
			],
			"translation":[
				0,
				3,
				-3
			]
		},
		{
			"mesh":6,
			"name":"NODE_AddInstancedStaticMeshComponent-8:0",
			"scale":[
				0.9990000128746033,
				1,
				1
			],
			"translation":[
				0,
				3,
				3
			]
		},
		{
			"mesh":6,
			"name":"NODE_AddInstancedStaticMeshComponent-8:1",
			"rotation":[
				-0.70710688829422,
				0,
				0,
				0.7071066498756409
			],
			"scale":[
				0.9990000128746033,
				1,
				1
			],
			"translation":[
				0,
				4,
				-2
			]
		},
		{
			"mesh":7,
			"name":"NODE_AddInstancedStaticMeshComponent-9:0",
			"rotation":[
				-0.70710688829422,
				0,
				0,
				0.7071066498756409
			],
			"scale":[
				0.9990000128746033,
				0.8000001311302185,
				1
			],
			"translation":[
				0,
				4,
				2
			]
		}
	],
	"materials":[
		{
			"name":"M_Display",
			"pbrMetallicRoughness":{
				"baseColorFactor":[
					0.7874181866645813,
					0.7874181866645813,
					0.7874181866645813,
					1
				],
				"metallicFactor":0
			}
		},
		{
			"name":"M_Metal_Display_EdgeCurve_B",
			"pbrMetallicRoughness":{
				"baseColorFactor":[
					0.41254299879074097,
					0.3613069951534271,
					0.2961379885673523,
					1
				],
				"metallicRoughnessTexture":{
					"extensions":{
						"KHR_texture_transform":{
							"offset":[
								-0.0035784151405096054,
								-0.06041659414768219
							],
							"scale":[
								1.012477159500122,
								1.170745611190796
							]
						}
					},
					"index":0,
					"texCoord":1
				}
			}
		},
		{
			"name":"MI_Display_Blue",
			"pbrMetallicRoughness":{
				"baseColorFactor":[
					0.01298299990594387,
					0.18447500467300415,
					0.6172069907188416,
					1
				],
				"metallicFactor":0
			}
		},
		{
			"name":"M_Metal_Display_Side_B",
			"pbrMetallicRoughness":{
				"baseColorFactor":[
					0.41254299879074097,
					0.3613069951534271,
					0.2961379885673523,
					1
				],
				"metallicRoughnessTexture":{
					"extensions":{
						"KHR_texture_transform":{
							"offset":[
								-0.004418462514877319,
								-4.294285774230957
							],
							"scale":[
								1.1137244701385498,
								5.851428508758545
							]
						}
					},
					"index":1,
					"texCoord":2
				}
			}
		},
		{
			"name":"M_Metal_Display_Corner_B",
			"pbrMetallicRoughness":{
				"baseColorFactor":[
					0.41254299879074097,
					0.3613069951534271,
					0.2961379885673523,
					1
				],
				"metallicRoughnessTexture":{
					"extensions":{
						"KHR_texture_transform":{
							"offset":[
								-0.0018327896250411868,
								-0.003180902451276779
							],
							"scale":[
								1.0072427988052368,
								1.0568490028381348
							]
						}
					},
					"index":2,
					"texCoord":1
				}
			}
		},
		{
			"name":"M_Tile_Glossy_ShadowBox_1MPanel",
			"pbrMetallicRoughness":{
				"baseColorFactor":[
					0.8999999761581421,
					0.8999999761581421,
					0.8999999761581421,
					1
				],
				"metallicRoughnessTexture":{
					"extensions":{
						"KHR_texture_transform":{
							"offset":[
								-0.010160433128476143,
								-0.009501874446868896
							],
							"scale":[
								1.2599321603775024,
								1.1793838739395142
							]
						}
					},
					"index":3,
					"texCoord":1
				}
			}
		},
		{
			"name":"M_Tile_ShadowBox_1MPanel",
			"pbrMetallicRoughness":{
				"baseColorFactor":[
					0.9019610285758972,
					0.9019610285758972,
					0.9019610285758972,
					1
				],
				"metallicRoughnessTexture":{
					"extensions":{
						"KHR_texture_transform":{
							"offset":[
								-0.008194370195269585,
								-0.00819437112659216
							],
							"scale":[
								1.0161329507827759,
								1.0161329507827759
							]
						}
					},
					"index":4,
					"texCoord":1
				}
			}
		},
		{
			"name":"M_Tile_Glossy_ShadowBox_RoundEdge",
			"pbrMetallicRoughness":{
				"baseColorFactor":[
					0.8999999761581421,
					0.8999999761581421,
					0.8999999761581421,
					1
				],
				"metallicRoughnessTexture":{
					"extensions":{
						"KHR_texture_transform":{
							"offset":[
								-0.011344104073941708,
								-0.00858176127076149
							],
							"scale":[
								1.4080439805984497,
								1.0702463388442993
							]
						}
					},
					"index":5,
					"texCoord":1
				}
			}
		},
		{
			"name":"M_Tile_ShadowBox_RoundEdge",
			"pbrMetallicRoughness":{
				"baseColorFactor":[
					0.9019610285758972,
					0.9019610285758972,
					0.9019610285758972,
					1
				],
				"metallicRoughnessTexture":{
					"extensions":{
						"KHR_texture_transform":{
							"offset":[
								-0.008419962599873543,
								-0.008259939029812813
							],
							"scale":[
								1.04410719871521,
								1.0242640972137451
							]
						}
					},
					"index":6,
					"texCoord":1
				}
			}
		},
		{
			"name":"M_Tile_Glossy_ShadowBox_1MPanel2",
			"pbrMetallicRoughness":{
				"baseColorFactor":[
					0.8999999761581421,
					0.8999999761581421,
					0.8999999761581421,
					1
				],
				"metallicRoughnessTexture":{
					"extensions":{
						"KHR_texture_transform":{
							"offset":[
								-0.008198438212275505,
								-0.008717745542526245
							],
							"scale":[
								1.0166373252868652,
								1.0810329914093018
							]
						}
					},
					"index":7,
					"texCoord":1
				}
			}
		},
		{
			"name":"M_Tile_ShadowBox_1MPanel2",
			"pbrMetallicRoughness":{
				"baseColorFactor":[
					0.9019610285758972,
					0.9019610285758972,
					0.9019610285758972,
					1
				],
				"metallicRoughnessTexture":{
					"extensions":{
						"KHR_texture_transform":{
							"offset":[
								-0.008198438212275505,
								-1.0415384769439697
							],
							"scale":[
								1.0166373252868652,
								3.1507692337036133
							]
						}
					},
					"index":8,
					"texCoord":1
				}
			}
		}
	],
	"meshes":[
		{
			"name":"Display_EdgeCurve_B",
			"primitives":[
				{
					"attributes":{
						"POSITION":0,
						"NORMAL":1,
						"TEXCOORD_0":2,
						"TEXCOORD_1":3
					},
					"indices":4,
					"material":0
				},
				{
					"attributes":{
						"POSITION":5,
						"NORMAL":6,
						"TEXCOORD_0":7,
						"TEXCOORD_1":8
					},
					"indices":9,
					"material":1
				},
				{
					"attributes":{
						"POSITION":10,
						"NORMAL":11,
						"TEXCOORD_0":12,
						"TEXCOORD_1":13
					},
					"indices":14,
					"material":2
				}
			]
		},
		{
			"name":"Display_Side_B",
			"primitives":[
				{
					"attributes":{
						"POSITION":15,
						"NORMAL":16,
						"TEXCOORD_0":17,
						"TEXCOORD_1":18,
						"TEXCOORD_2":19
					},
					"indices":20,
					"material":0
				},
				{
					"attributes":{
						"POSITION":21,
						"NORMAL":22,
						"TEXCOORD_0":23,
						"TEXCOORD_1":24,
						"TEXCOORD_2":25
					},
					"indices":26,
					"material":3
				},
				{
					"attributes":{
						"POSITION":27,
						"NORMAL":28,
						"TEXCOORD_0":29,
						"TEXCOORD_1":30,
						"TEXCOORD_2":31
					},
					"indices":32,
					"material":2
				}
			]
		},
		{
			"name":"Display_Curve_B",
			"primitives":[
				{
					"attributes":{
						"POSITION":33,
						"NORMAL":34,
						"TEXCOORD_0":35,
						"TEXCOORD_1":36
					},
					"indices":37,
					"material":0
				}
			]
		},
		{
			"name":"Display_Corner_B",
			"primitives":[
				{
					"attributes":{
						"POSITION":38,
						"NORMAL":39,
						"TEXCOORD_0":40,
						"TEXCOORD_1":41
					},
					"indices":42,
					"material":0
				},
				{
					"attributes":{
						"POSITION":43,
						"NORMAL":44,
						"TEXCOORD_0":45,
						"TEXCOORD_1":46
					},
					"indices":47,
					"material":4
				},
				{
					"attributes":{
						"POSITION":48,
						"NORMAL":49,
						"TEXCOORD_0":50,
						"TEXCOORD_1":51
					},
					"indices":52,
					"material":2
				}
			]
		},
		{
			"name":"Display_Main_B",
			"primitives":[
				{
					"attributes":{
						"POSITION":53,
						"NORMAL":54,
						"TEXCOORD_0":55,
						"TEXCOORD_1":56
					},
					"indices":57,
					"material":0
				}
			]
		},
		{
			"name":"ShadowBox_1MPanel",
			"primitives":[
				{
					"attributes":{
						"POSITION":58,
						"NORMAL":59,
						"TEXCOORD_0":60,
						"TEXCOORD_1":61
					},
					"indices":62,
					"material":5
				},
				{
					"attributes":{
						"POSITION":63,
						"NORMAL":64,
						"TEXCOORD_0":65,
						"TEXCOORD_1":66
					},
					"indices":67,
					"material":6
				}
			]
		},
		{
			"name":"ShadowBox_RoundEdge",
			"primitives":[
				{
					"attributes":{
						"POSITION":68,
						"NORMAL":69,
						"TEXCOORD_0":70,
						"TEXCOORD_1":71
					},
					"indices":72,
					"material":7
				},
				{
					"attributes":{
						"POSITION":73,
						"NORMAL":74,
						"TEXCOORD_0":75,
						"TEXCOORD_1":76
					},
					"indices":77,
					"material":8
				}
			]
		},
		{
			"name":"ShadowBox_1MPanel2",
			"primitives":[
				{
					"attributes":{
						"POSITION":78,
						"NORMAL":79,
						"TEXCOORD_0":80,
						"TEXCOORD_1":81
					},
					"indices":82,
					"material":9
				},
				{
					"attributes":{
						"POSITION":83,
						"NORMAL":84,
						"TEXCOORD_0":85,
						"TEXCOORD_1":86
					},
					"indices":87,
					"material":10
				}
			]
		}
	],
	"textures":[
		{
			"sampler":0,
			"source":0
		},
		{
			"sampler":0,
			"source":1
		},
		{
			"sampler":0,
			"source":2
		},
		{
			"sampler":0,
			"source":3
		},
		{
			"sampler":0,
			"source":4
		},
		{
			"sampler":0,
			"source":5
		},
		{
			"sampler":0,
			"source":6
		},
		{
			"sampler":0,
			"source":7
		},
		{
			"sampler":0,
			"source":8
		}
	],
	"images":[
		{
			"mimeType":"image/png",
			"name":"M_Metal_Display_EdgeCurve_B_MetallicRoughness",
			"uri":"textures/M_Metal_Display_EdgeCurve_B_MetallicRoughness.png"
		},
		{
			"mimeType":"image/png",
			"name":"M_Metal_Display_Side_B_MetallicRoughness",
			"uri":"textures/M_Metal_Display_Side_B_MetallicRoughness.png"
		},
		{
			"mimeType":"image/png",
			"name":"M_Metal_Display_Corner_B_MetallicRoughness",
			"uri":"textures/M_Metal_Display_Corner_B_MetallicRoughness.png"
		},
		{
			"mimeType":"image/png",
			"name":"M_Tile_Glossy_ShadowBox_1MPanel_MetallicRoughness",
			"uri":"textures/M_Tile_Glossy_ShadowBox_1MPanel_MetallicRoughness.png"
		},
		{
			"mimeType":"image/png",
			"name":"M_Tile_ShadowBox_1MPanel_MetallicRoughness",
			"uri":"textures/M_Tile_ShadowBox_1MPanel_MetallicRoughness.png"
		},
		{
			"mimeType":"image/png",
			"name":"M_Tile_Glossy_ShadowBox_RoundEdge_MetallicRoughness",
			"uri":"textures/M_Tile_Glossy_ShadowBox_RoundEdge_MetallicRoughness.png"
		},
		{
			"mimeType":"image/png",
			"name":"M_Tile_ShadowBox_RoundEdge_MetallicRoughness",
			"uri":"textures/M_Tile_ShadowBox_RoundEdge_MetallicRoughness.png"
		},
		{
			"mimeType":"image/png",
			"name":"M_Tile_Glossy_ShadowBox_1MPanel2_MetallicRoughness",
			"uri":"textures/M_Tile_Glossy_ShadowBox_1MPanel2_MetallicRoughness.png"
		},
		{
			"mimeType":"image/png",
			"name":"M_Tile_ShadowBox_1MPanel2_MetallicRoughness",
			"uri":"textures/M_Tile_ShadowBox_1MPanel2_MetallicRoughness.png"
		}
	],
	"accessors":[
		{
			"bufferView":0,
			"componentType":5126,
			"count":96,
			"max":[
				1.0005120038986206,
				1.0003727674484253,
				0.9934900403022766
			],
			"min":[
				0.0024695906322449446,
				0.0024049486964941025,
				-0.0004266724572516978
			],
			"type":"VEC3"
		},
		{
			"bufferView":1,
			"componentType":5126,
			"count":96,
			"type":"VEC3"
		},
		{
			"bufferView":2,
			"componentType":5126,
			"count":96,
			"type":"VEC2"
		},
		{
			"bufferView":3,
			"componentType":5126,
			"count":96,
			"type":"VEC2"
		},
		{
			"bufferView":4,
			"componentType":5123,
			"count":300,
			"type":"SCALAR"
		},
		{
			"bufferView":5,
			"componentType":5126,
			"count":109,
			"max":[
				1.0005120038986206,
				1.0003727674484253,
				1.0011672973632812
			],
			"min":[
				0.02407774329185486,
				0.023634470999240875,
				0.8264792561531067
			],
			"type":"VEC3"
		},
		{
			"bufferView":6,
			"componentType":5126,
			"count":109,
			"type":"VEC3"
		},
		{
			"bufferView":7,
			"componentType":5126,
			"count":109,
			"type":"VEC2"
		},
		{
			"bufferView":8,
			"componentType":5126,
			"count":109,
			"type":"VEC2"
		},
		{
			"bufferView":9,
			"componentType":5123,
			"count":408,
			"type":"SCALAR"
		},
		{
			"bufferView":10,
			"componentType":5126,
			"count":35,
			"max":[
				0.8171473741531372,
				0.8501409888267517,
				0.83035808801651
			],
			"min":[
				0.03502010181546211,
				0.040441010147333145,
				0.8234946131706238
			],
			"type":"VEC3"
		},
		{
			"bufferView":11,
			"componentType":5126,
			"count":35,
			"type":"VEC3"
		},
		{
			"bufferView":12,
			"componentType":5126,
			"count":35,
			"type":"VEC2"
		},
		{
			"bufferView":13,
			"componentType":5126,
			"count":35,
			"type":"VEC2"
		},
		{
			"bufferView":14,
			"componentType":5123,
			"count":60,
			"type":"SCALAR"
		},
		{
			"bufferView":15,
			"componentType":5126,
			"count":211,
			"max":[
				0.09999999403953552,
				1.000000238418579,
				0.9999993443489075
			],
			"min":[
				0.00390801765024662,
				-1.784169540997027e-07,
				-1.000001072883606
			],
			"type":"VEC3"
		},
		{
			"bufferView":16,
			"componentType":5126,
			"count":211,
			"type":"VEC3"
		},
		{
			"bufferView":17,
			"componentType":5126,
			"count":211,
			"type":"VEC2"
		},
		{
			"bufferView":18,
			"componentType":5126,
			"count":211,
			"type":"VEC2"
		},
		{
			"bufferView":19,
			"componentType":5126,
			"count":211,
			"type":"VEC2"
		},
		{
			"bufferView":20,
			"componentType":5123,
			"count":444,
			"type":"SCALAR"
		},
		{
			"bufferView":21,
			"componentType":5126,
			"count":48,
			"max":[
				0.07883226871490479,
				1.000000238418579,
				0.9999992251396179
			],
			"min":[
				0.025075742974877357,
				0.8301432132720947,
				-1.0000007152557373
			],
			"type":"VEC3"
		},
		{
			"bufferView":22,
			"componentType":5126,
			"count":48,
			"type":"VEC3"
		},
		{
			"bufferView":23,
			"componentType":5126,
			"count":48,
			"type":"VEC2"
		},
		{
			"bufferView":24,
			"componentType":5126,
			"count":48,
			"type":"VEC2"
		},
		{
			"bufferView":25,
			"componentType":5126,
			"count":48,
			"type":"VEC2"
		},
		{
			"bufferView":26,
			"componentType":5123,
			"count":132,
			"type":"SCALAR"
		},
		{
			"bufferView":27,
			"componentType":5126,
			"count":20,
			"max":[
				0.07928366214036942,
				0.8301443457603455,
				0.9999992251396179
			],
			"min":[
				0.024624349549412727,
				0.8241602778434753,
				-1.000001072883606
			],
			"type":"VEC3"
		},
		{
			"bufferView":28,
			"componentType":5126,
			"count":20,
			"type":"VEC3"
		},
		{
			"bufferView":29,
			"componentType":5126,
			"count":20,
			"type":"VEC2"
		},
		{
			"bufferView":30,
			"componentType":5126,
			"count":20,
			"type":"VEC2"
		},
		{
			"bufferView":31,
			"componentType":5126,
			"count":20,
			"type":"VEC2"
		},
		{
			"bufferView":32,
			"componentType":5123,
			"count":24,
			"type":"SCALAR"
		},
		{
			"bufferView":33,
			"componentType":5126,
			"count":276,
			"max":[
				1,
				0.9999998807907104,
				1.0000293254852295
			],
			"min":[
				-6.341933840303682e-07,
				-1.0681152389224735e-06,
				-1.0000001192092896
			],
			"type":"VEC3"
		},
		{
			"bufferView":34,
			"componentType":5126,
			"count":276,
			"type":"VEC3"
		},
		{
			"bufferView":35,
			"componentType":5126,
			"count":276,
			"type":"VEC2"
		},
		{
			"bufferView":36,
			"componentType":5126,
			"count":276,
			"type":"VEC2"
		},
		{
			"bufferView":37,
			"componentType":5123,
			"count":756,
			"type":"SCALAR"
		},
		{
			"bufferView":38,
			"componentType":5126,
			"count":38,
			"max":[
				0.10194908827543259,
				0.8289029002189636,
				0.8300381898880005
			],
			"min":[
				0.0029679592698812485,
				-0.0006702110986225307,
				3.763498455100489e-07
			],
			"type":"VEC3"
		},
		{
			"bufferView":39,
			"componentType":5126,
			"count":38,
			"type":"VEC3"
		},
		{
			"bufferView":40,
			"componentType":5126,
			"count":38,
			"type":"VEC2"
		},
		{
			"bufferView":41,
			"componentType":5126,
			"count":38,
			"type":"VEC2"
		},
		{
			"bufferView":42,
			"componentType":5123,
			"count":108,
			"type":"SCALAR"
		},
		{
			"bufferView":43,
			"componentType":5126,
			"count":121,
			"max":[
				0.07978732138872147,
				0.9960406422615051,
				1.0024138689041138
			],
			"min":[
				0.02476356364786625,
				-0.0008096046512946486,
				-0.0007032701396383345
			],
			"type":"VEC3"
		},
		{
			"bufferView":44,
			"componentType":5126,
			"count":121,
			"type":"VEC3"
		},
		{
			"bufferView":45,
			"componentType":5126,
			"count":121,
			"type":"VEC2"
		},
		{
			"bufferView":46,
			"componentType":5126,
			"count":121,
			"type":"VEC2"
		},
		{
			"bufferView":47,
			"componentType":5123,
			"count":420,
			"type":"SCALAR"
		},
		{
			"bufferView":48,
			"componentType":5126,
			"count":117,
			"max":[
				0.10194908827543259,
				0.9960406422615051,
				1.0024138689041138
			],
			"min":[
				0.0029679592698812485,
				-0.0008096046512946486,
				-0.0007032701396383345
			],
			"type":"VEC3"
		},
		{
			"bufferView":49,
			"componentType":5126,
			"count":117,
			"type":"VEC3"
		},
		{
			"bufferView":50,
			"componentType":5126,
			"count":117,
			"type":"VEC2"
		},
		{
			"bufferView":51,
			"componentType":5126,
			"count":117,
			"type":"VEC2"
		},
		{
			"bufferView":52,
			"componentType":5123,
			"count":252,
			"type":"SCALAR"
		},
		{
			"bufferView":53,
			"componentType":5126,
			"count":24,
			"max":[
				0.10000015795230865,
				2,
				1
			],
			"min":[
				-1.6292067073209182e-07,
				-6.123233601181349e-17,
				-1
			],
			"type":"VEC3"
		},
		{
			"bufferView":54,
			"componentType":5126,
			"count":24,
			"type":"VEC3"
		},
		{
			"bufferView":55,
			"componentType":5126,
			"count":24,
			"type":"VEC2"
		},
		{
			"bufferView":56,
			"componentType":5126,
			"count":24,
			"type":"VEC2"
		},
		{
			"bufferView":57,
			"componentType":5123,
			"count":36,
			"type":"SCALAR"
		},
		{
			"bufferView":58,
			"componentType":5126,
			"count":36,
			"max":[
				1,
				5,
				0.16490764915943146
			],
			"min":[
				-8.649969095131382e-05,
				5.960463411724959e-08,
				-1.230405814567348e-05
			],
			"type":"VEC3"
		},
		{
			"bufferView":59,
			"componentType":5126,
			"count":36,
			"type":"VEC3"
		},
		{
			"bufferView":60,
			"componentType":5126,
			"count":36,
			"type":"VEC2"
		},
		{
			"bufferView":61,
			"componentType":5126,
			"count":36,
			"type":"VEC2"
		},
		{
			"bufferView":62,
			"componentType":5123,
			"count":60,
			"type":"SCALAR"
		},
		{
			"bufferView":63,
			"componentType":5126,
			"count":1310,
			"max":[
				0.6666666865348816,
				5,
				0.10853445529937744
			],
			"min":[
				-8.649969095131382e-05,
				5.960463411724959e-08,
				-0.01606794260442257
			],
			"type":"VEC3"
		},
		{
			"bufferView":64,
			"componentType":5126,
			"count":1310,
			"type":"VEC3"
		},
		{
			"bufferView":65,
			"componentType":5126,
			"count":1310,
			"type":"VEC2"
		},
		{
			"bufferView":66,
			"componentType":5126,
			"count":1310,
			"type":"VEC2"
		},
		{
			"bufferView":67,
			"componentType":5123,
			"count":1962,
			"type":"SCALAR"
		},
		{
			"bufferView":68,
			"componentType":5126,
			"count":164,
			"max":[
				1.0003091096878052,
				1.1649158000946045,
				0.16486617922782898
			],
			"min":[
				-0.0006959715974517167,
				-5.1541752327466384e-05,
				-1.0000001192092896
			],
			"type":"VEC3"
		},
		{
			"bufferView":69,
			"componentType":5126,
			"count":164,
			"type":"VEC3"
		},
		{
			"bufferView":70,
			"componentType":5126,
			"count":164,
			"type":"VEC2"
		},
		{
			"bufferView":71,
			"componentType":5126,
			"count":164,
			"type":"VEC2"
		},
		{
			"bufferView":72,
			"componentType":5123,
			"count":423,
			"type":"SCALAR"
		},
		{
			"bufferView":73,
			"componentType":5126,
			"count":126,
			"max":[
				0.6669416427612305,
				1.108534336090088,
				0.10853445529937744
			],
			"min":[
				-0.0006959715974517167,
				8.499550396834366e-09,
				-1.0000001192092896
			],
			"type":"VEC3"
		},
		{
			"bufferView":74,
			"componentType":5126,
			"count":126,
			"type":"VEC3"
		},
		{
			"bufferView":75,
			"componentType":5126,
			"count":126,
			"type":"VEC2"
		},
		{
			"bufferView":76,
			"componentType":5126,
			"count":126,
			"type":"VEC2"
		},
		{
			"bufferView":77,
			"componentType":5123,
			"count":345,
			"type":"SCALAR"
		},
		{
			"bufferView":78,
			"componentType":5126,
			"count":50,
			"max":[
				1,
				5,
				0.1648990958929062
			],
			"min":[
				-3.3028987900252105e-07,
				5.960463411724959e-08,
				-8.707503411642392e-07
			],
			"type":"VEC3"
		},
		{
			"bufferView":79,
			"componentType":5126,
			"count":50,
			"type":"VEC3"
		},
		{
			"bufferView":80,
			"componentType":5126,
			"count":50,
			"type":"VEC2"
		},
		{
			"bufferView":81,
			"componentType":5126,
			"count":50,
			"type":"VEC2"
		},
		{
			"bufferView":82,
			"componentType":5123,
			"count":120,
			"type":"SCALAR"
		},
		{
			"bufferView":83,
			"componentType":5126,
			"count":16,
			"max":[
				0.6666666865348816,
				5,
				0.10853445529937744
			],
			"min":[
				-3.3028987900252105e-07,
				5.960463411724959e-08,
				-8.707503411642392e-07
			],
			"type":"VEC3"
		},
		{
			"bufferView":84,
			"componentType":5126,
			"count":16,
			"type":"VEC3"
		},
		{
			"bufferView":85,
			"componentType":5126,
			"count":16,
			"type":"VEC2"
		},
		{
			"bufferView":86,
			"componentType":5126,
			"count":16,
			"type":"VEC2"
		},
		{
			"bufferView":87,
			"componentType":5123,
			"count":24,
			"type":"SCALAR"
		}
	],
	"bufferViews":[
		{
			"buffer":0,
			"byteLength":1152,
			"byteOffset":0,
			"target":34962
		},
		{
			"buffer":0,
			"byteLength":1152,
			"byteOffset":1152,
			"target":34962
		},
		{
			"buffer":0,
			"byteLength":768,
			"byteOffset":2304,
			"target":34962
		},
		{
			"buffer":0,
			"byteLength":768,
			"byteOffset":3072,
			"target":34962
		},
		{
			"buffer":0,
			"byteLength":600,
			"byteOffset":3840,
			"target":34963
		},
		{
			"buffer":0,
			"byteLength":1308,
			"byteOffset":4440,
			"target":34962
		},
		{
			"buffer":0,
			"byteLength":1308,
			"byteOffset":5748,
			"target":34962
		},
		{
			"buffer":0,
			"byteLength":872,
			"byteOffset":7056,
			"target":34962
		},
		{
			"buffer":0,
			"byteLength":872,
			"byteOffset":7928,
			"target":34962
		},
		{
			"buffer":0,
			"byteLength":816,
			"byteOffset":8800,
			"target":34963
		},
		{
			"buffer":0,
			"byteLength":420,
			"byteOffset":9616,
			"target":34962
		},
		{
			"buffer":0,
			"byteLength":420,
			"byteOffset":10036,
			"target":34962
		},
		{
			"buffer":0,
			"byteLength":280,
			"byteOffset":10456,
			"target":34962
		},
		{
			"buffer":0,
			"byteLength":280,
			"byteOffset":10736,
			"target":34962
		},
		{
			"buffer":0,
			"byteLength":120,
			"byteOffset":11016,
			"target":34963
		},
		{
			"buffer":0,
			"byteLength":2532,
			"byteOffset":11136,
			"target":34962
		},
		{
			"buffer":0,
			"byteLength":2532,
			"byteOffset":13668,
			"target":34962
		},
		{
			"buffer":0,
			"byteLength":1688,
			"byteOffset":16200,
			"target":34962
		},
		{
			"buffer":0,
			"byteLength":1688,
			"byteOffset":17888,
			"target":34962
		},
		{
			"buffer":0,
			"byteLength":1688,
			"byteOffset":19576,
			"target":34962
		},
		{
			"buffer":0,
			"byteLength":888,
			"byteOffset":21264,
			"target":34963
		},
		{
			"buffer":0,
			"byteLength":576,
			"byteOffset":22152,
			"target":34962
		},
		{
			"buffer":0,
			"byteLength":576,
			"byteOffset":22728,
			"target":34962
		},
		{
			"buffer":0,
			"byteLength":384,
			"byteOffset":23304,
			"target":34962
		},
		{
			"buffer":0,
			"byteLength":384,
			"byteOffset":23688,
			"target":34962
		},
		{
			"buffer":0,
			"byteLength":384,
			"byteOffset":24072,
			"target":34962
		},
		{
			"buffer":0,
			"byteLength":264,
			"byteOffset":24456,
			"target":34963
		},
		{
			"buffer":0,
			"byteLength":240,
			"byteOffset":24720,
			"target":34962
		},
		{
			"buffer":0,
			"byteLength":240,
			"byteOffset":24960,
			"target":34962
		},
		{
			"buffer":0,
			"byteLength":160,
			"byteOffset":25200,
			"target":34962
		},
		{
			"buffer":0,
			"byteLength":160,
			"byteOffset":25360,
			"target":34962
		},
		{
			"buffer":0,
			"byteLength":160,
			"byteOffset":25520,
			"target":34962
		},
		{
			"buffer":0,
			"byteLength":48,
			"byteOffset":25680,
			"target":34963
		},
		{
			"buffer":0,
			"byteLength":3312,
			"byteOffset":25728,
			"target":34962
		},
		{
			"buffer":0,
			"byteLength":3312,
			"byteOffset":29040,
			"target":34962
		},
		{
			"buffer":0,
			"byteLength":2208,
			"byteOffset":32352,
			"target":34962
		},
		{
			"buffer":0,
			"byteLength":2208,
			"byteOffset":34560,
			"target":34962
		},
		{
			"buffer":0,
			"byteLength":1512,
			"byteOffset":36768,
			"target":34963
		},
		{
			"buffer":0,
			"byteLength":456,
			"byteOffset":38280,
			"target":34962
		},
		{
			"buffer":0,
			"byteLength":456,
			"byteOffset":38736,
			"target":34962
		},
		{
			"buffer":0,
			"byteLength":304,
			"byteOffset":39192,
			"target":34962
		},
		{
			"buffer":0,
			"byteLength":304,
			"byteOffset":39496,
			"target":34962
		},
		{
			"buffer":0,
			"byteLength":216,
			"byteOffset":39800,
			"target":34963
		},
		{
			"buffer":0,
			"byteLength":1452,
			"byteOffset":40016,
			"target":34962
		},
		{
			"buffer":0,
			"byteLength":1452,
			"byteOffset":41468,
			"target":34962
		},
		{
			"buffer":0,
			"byteLength":968,
			"byteOffset":42920,
			"target":34962
		},
		{
			"buffer":0,
			"byteLength":968,
			"byteOffset":43888,
			"target":34962
		},
		{
			"buffer":0,
			"byteLength":840,
			"byteOffset":44856,
			"target":34963
		},
		{
			"buffer":0,
			"byteLength":1404,
			"byteOffset":45696,
			"target":34962
		},
		{
			"buffer":0,
			"byteLength":1404,
			"byteOffset":47100,
			"target":34962
		},
		{
			"buffer":0,
			"byteLength":936,
			"byteOffset":48504,
			"target":34962
		},
		{
			"buffer":0,
			"byteLength":936,
			"byteOffset":49440,
			"target":34962
		},
		{
			"buffer":0,
			"byteLength":504,
			"byteOffset":50376,
			"target":34963
		},
		{
			"buffer":0,
			"byteLength":288,
			"byteOffset":50880,
			"target":34962
		},
		{
			"buffer":0,
			"byteLength":288,
			"byteOffset":51168,
			"target":34962
		},
		{
			"buffer":0,
			"byteLength":192,
			"byteOffset":51456,
			"target":34962
		},
		{
			"buffer":0,
			"byteLength":192,
			"byteOffset":51648,
			"target":34962
		},
		{
			"buffer":0,
			"byteLength":72,
			"byteOffset":51840,
			"target":34963
		},
		{
			"buffer":0,
			"byteLength":432,
			"byteOffset":51912,
			"target":34962
		},
		{
			"buffer":0,
			"byteLength":432,
			"byteOffset":52344,
			"target":34962
		},
		{
			"buffer":0,
			"byteLength":288,
			"byteOffset":52776,
			"target":34962
		},
		{
			"buffer":0,
			"byteLength":288,
			"byteOffset":53064,
			"target":34962
		},
		{
			"buffer":0,
			"byteLength":120,
			"byteOffset":53352,
			"target":34963
		},
		{
			"buffer":0,
			"byteLength":15720,
			"byteOffset":53472,
			"target":34962
		},
		{
			"buffer":0,
			"byteLength":15720,
			"byteOffset":69192,
			"target":34962
		},
		{
			"buffer":0,
			"byteLength":10480,
			"byteOffset":84912,
			"target":34962
		},
		{
			"buffer":0,
			"byteLength":10480,
			"byteOffset":95392,
			"target":34962
		},
		{
			"buffer":0,
			"byteLength":3924,
			"byteOffset":105872,
			"target":34963
		},
		{
			"buffer":0,
			"byteLength":1968,
			"byteOffset":109796,
			"target":34962
		},
		{
			"buffer":0,
			"byteLength":1968,
			"byteOffset":111764,
			"target":34962
		},
		{
			"buffer":0,
			"byteLength":1312,
			"byteOffset":113732,
			"target":34962
		},
		{
			"buffer":0,
			"byteLength":1312,
			"byteOffset":115044,
			"target":34962
		},
		{
			"buffer":0,
			"byteLength":846,
			"byteOffset":116356,
			"target":34963
		},
		{
			"buffer":0,
			"byteLength":1512,
			"byteOffset":117204,
			"target":34962
		},
		{
			"buffer":0,
			"byteLength":1512,
			"byteOffset":118716,
			"target":34962
		},
		{
			"buffer":0,
			"byteLength":1008,
			"byteOffset":120228,
			"target":34962
		},
		{
			"buffer":0,
			"byteLength":1008,
			"byteOffset":121236,
			"target":34962
		},
		{
			"buffer":0,
			"byteLength":690,
			"byteOffset":122244,
			"target":34963
		},
		{
			"buffer":0,
			"byteLength":600,
			"byteOffset":122936,
			"target":34962
		},
		{
			"buffer":0,
			"byteLength":600,
			"byteOffset":123536,
			"target":34962
		},
		{
			"buffer":0,
			"byteLength":400,
			"byteOffset":124136,
			"target":34962
		},
		{
			"buffer":0,
			"byteLength":400,
			"byteOffset":124536,
			"target":34962
		},
		{
			"buffer":0,
			"byteLength":240,
			"byteOffset":124936,
			"target":34963
		},
		{
			"buffer":0,
			"byteLength":192,
			"byteOffset":125176,
			"target":34962
		},
		{
			"buffer":0,
			"byteLength":192,
			"byteOffset":125368,
			"target":34962
		},
		{
			"buffer":0,
			"byteLength":128,
			"byteOffset":125560,
			"target":34962
		},
		{
			"buffer":0,
			"byteLength":128,
			"byteOffset":125688,
			"target":34962
		},
		{
			"buffer":0,
			"byteLength":48,
			"byteOffset":125816,
			"target":34963
		}
	],
	"samplers":[
		{
			"magFilter":9729,
			"minFilter":9987
		}
	],
	"buffers":[
		{
			"byteLength":125864,
			"uri":"showcase.bin"
		}
	]
}
