{
	"asset":{
		"generator":"Khronos glTF Blender I/O v4.4.56",
		"version":"2.0"
	},
	"extensionsUsed":[
		"KHR_materials_specular",
		"KHR_texture_transform"
	],
	"extensionsRequired":[
		"KHR_texture_transform"
	],
	"scene":0,
	"scenes":[
		{
			"name":"Scene",
			"nodes":[
				0,
				1,
				2,
				3,
				4,
				5,
				6,
				7,
				8,
				9,
				10,
				11,
				12,
				13,
				14,
				15,
				16,
				17
			]
		}
	],
	"nodes":[
		{
			"mesh":0,
			"name":"human",
			"rotation":[
				0.70710688829422,
				0,
				0,
				0.7071066498756409
			],
			"scale":[
				0.07999999821186066,
				0.08000000566244125,
				0.08000000566244125
			],
			"translation":[
				-13.876718521118164,
				4.518513202667236,
				31.752166748046875
			]
		},
		{
			"mesh":1,
			"name":"\u5929\u4e95",
			"scale":[
				28.80000114440918,
				4,
				33.599998474121094
			],
			"translation":[
				0,
				44.34393310546875,
				0
			]
		},
		{
			"mesh":2,
			"name":"\u67f11",
			"scale":[
				2,
				24.192001342773438,
				1
			],
			"translation":[
				-17.31001091003418,
				19.765262603759766,
				-1.2283384799957275
			]
		},
		{
			"mesh":3,
			"name":"\u67f13",
			"scale":[
				2,
				24.192001342773438,
				1
			],
			"translation":[
				-17.31001091003418,
				19.765262603759766,
				-15.228338241577148
			]
		},
		{
			"mesh":4,
			"name":"\u67f12",
			"scale":[
				2,
				24.192001342773438,
				1
			],
			"translation":[
				-17.31001091003418,
				19.765262603759766,
				12.771661758422852
			]
		},
		{
			"mesh":5,
			"name":"Cube",
			"scale":[
				58.708473205566406,
				20,
				8
			],
			"translation":[
				-25.221160888671875,
				22.818077087402344,
				-41.73957824707031
			]
		},
		{
			"mesh":6,
			"name":"Cube.001",
			"rotation":[
				0,
				0.7071068286895752,
				0,
				0.7071068286895752
			],
			"scale":[
				40,
				20,
				8
			],
			"translation":[
				40.27903366088867,
				22.818077087402344,
				3.6913299560546875
			]
		},
		{
			"mesh":7,
			"name":"Cube.002",
			"scale":[
				2,
				23.383272171020508,
				2
			],
			"translation":[
				30.617435455322266,
				21.94137954711914,
				-32.37800598144531
			]
		},
		{
			"mesh":8,
			"name":"Cube.003",
			"rotation":[
				0.7071068286895752,
				0,
				0,
				0.7071068286895752
			],
			"scale":[
				40,
				40,
				4
			],
			"translation":[
				0.7524785995483398,
				0.7026729583740234,
				-3.12204647064209
			]
		},
		{
			"mesh":9,
			"name":"Cube.004",
			"scale":[
				5.599999904632568,
				4,
				24
			],
			"translation":[
				28.19717025756836,
				6.647065162658691,
				-10.070205688476562
			]
		},
		{
			"mesh":10,
			"name":"Plane",
			"scale":[
				38.05999755859375,
				1,
				32.72999954223633
			],
			"translation":[
				3.5553207397460938,
				-1.0194064378738403,
				-2.4766788482666016
			]
		},
		{
			"mesh":11,
			"name":"Cube.005",
			"scale":[
				10,
				18,
				12
			],
			"translation":[
				21.57477569580078,
				17.48687744140625,
				123.19194030761719
			]
		},
		{
			"mesh":12,
			"name":"\u5e8a",
			"scale":[
				87.11000061035156,
				1,
				57.32999801635742
			],
			"translation":[
				-37.83798599243164,
				0.25176382064819336,
				129.0513153076172
			]
		},
		{
			"mesh":13,
			"name":"Cube.006",
			"scale":[
				10,
				18,
				12
			],
			"translation":[
				8.243367195129395,
				37.16850280761719,
				137.54627990722656
			]
		},
		{
			"mesh":14,
			"name":"Cube.007",
			"scale":[
				10,
				18,
				12
			],
			"translation":[
				14.915796279907227,
				10.109500885009766,
				144.6012725830078
			]
		},
		{
			"mesh":15,
			"name":"Cube.008",
			"scale":[
				10,
				18,
				12
			],
			"translation":[
				6.97451639175415,
				18.63302993774414,
				153.46681213378906
			]
		},
		{
			"mesh":16,
			"name":"Cube.009",
			"scale":[
				10,
				18,
				12
			],
			"translation":[
				1.565828800201416,
				30.44733428955078,
				147.756591796875
			]
		},
		{
			"name":"Cube.010",
			"scale":[
				10,
				10,
				10
			],
			"translation":[
				-209.71632385253906,
				4.896722793579102,
				-28.19275665283203
			]
		}
	],
	"materials":[
		{
			"doubleSided":true,
			"extensions":{
				"KHR_materials_specular":{
					"specularColorFactor":[
						2.0,
						2.0,
						2.0
					]
				}
			},
			"name":"Beta_Joints_MAT1",
			"pbrMetallicRoughness":{
				"baseColorFactor":[
					0.723852276802063,
					0.723852276802063,
					0.723852276802063,
					1
				],
				"metallicFactor":0.5,
				"roughnessFactor":0.5527864098548889
			}
		},
		{
			"doubleSided":true,
			"extensions":{
				"KHR_materials_specular":{
					"specularColorFactor":[
						2.0,
						2.0,
						2.0
					]
				}
			},
			"name":"Beta_HighLimbsGeoSG3",
			"pbrMetallicRoughness":{
				"metallicFactor":0.12598425149917603
			}
		},
		{
			"doubleSided":true,
			"name":"Material.001",
			"normalTexture":{
				"index":0
			},
			"pbrMetallicRoughness":{
				"baseColorTexture":{
					"index":1
				},
				"metallicFactor":0,
				"metallicRoughnessTexture":{
					"index":2
				}
			}
		},
		{
			"doubleSided":true,
			"name":"\u67f1",
			"normalTexture":{
				"extensions":{
					"KHR_texture_transform":{
						"offset":[
							0,
							0.5
						],
						"scale":[
							6,
							0.5
						]
					}
				},
				"index":3
			},
			"pbrMetallicRoughness":{
				"baseColorTexture":{
					"extensions":{
						"KHR_texture_transform":{
							"offset":[
								0,
								0.5
							],
							"scale":[
								6,
								0.5
							]
						}
					},
					"index":4
				},
				"metallicFactor":0,
				"metallicRoughnessTexture":{
					"extensions":{
						"KHR_texture_transform":{
							"offset":[
								0,
								0.5
							],
							"scale":[
								6,
								0.5
							]
						}
					},
					"index":5
				}
			}
		},
		{
			"doubleSided":true,
			"name":"wall.001",
			"normalTexture":{
				"index":6
			},
			"pbrMetallicRoughness":{
				"baseColorTexture":{
					"extensions":{
						"KHR_texture_transform":{
							"offset":[
								0,
								-11
							],
							"scale":[
								6,
								12
							]
						}
					},
					"index":7
				},
				"metallicRoughnessTexture":{
					"extensions":{
						"KHR_texture_transform":{
							"offset":[
								0,
								-11
							],
							"scale":[
								6,
								12
							]
						}
					},
					"index":8
				}
			}
		},
		{
			"doubleSided":true,
			"name":"Floor.001",
			"normalTexture":{
				"extensions":{
					"KHR_texture_transform":{
						"offset":[
							0,
							-11
						],
						"scale":[
							12,
							12
						]
					}
				},
				"index":9
			},
			"pbrMetallicRoughness":{
				"baseColorTexture":{
					"extensions":{
						"KHR_texture_transform":{
							"offset":[
								0,
								-11
							],
							"scale":[
								12,
								12
							]
						}
					},
					"index":10
				},
				"metallicRoughnessTexture":{
					"extensions":{
						"KHR_texture_transform":{
							"offset":[
								0,
								-11
							],
							"scale":[
								12,
								12
							]
						}
					},
					"index":11
				}
			}
		},
		{
			"doubleSided":true,
			"name":"Material",
			"pbrMetallicRoughness":{
				"baseColorFactor":[
					0.177582249045372,
					0.8005756139755249,
					0.7574671506881714,
					1
				],
				"roughnessFactor":0
			}
		}
	],
	"meshes":[
		{
			"name":"Beta_Joints",
			"primitives":[
				{
					"attributes":{
						"POSITION":0,
						"NORMAL":1,
						"TEXCOORD_0":2
					},
					"indices":3,
					"material":0
				},
				{
					"attributes":{
						"POSITION":4,
						"NORMAL":5,
						"TEXCOORD_0":6
					},
					"indices":7,
					"material":1
				}
			]
		},
		{
			"name":"Cube.002",
			"primitives":[
				{
					"attributes":{
						"POSITION":8,
						"NORMAL":9,
						"TEXCOORD_0":10
					},
					"indices":11,
					"material":2
				}
			]
		},
		{
			"name":"Cube.003",
			"primitives":[
				{
					"attributes":{
						"POSITION":12,
						"NORMAL":13,
						"TEXCOORD_0":14
					},
					"indices":15,
					"material":3
				}
			]
		},
		{
			"name":"Cube.005",
			"primitives":[
				{
					"attributes":{
						"POSITION":16,
						"NORMAL":17,
						"TEXCOORD_0":18
					},
					"indices":15,
					"material":3
				}
			]
		},
		{
			"name":"Cube.006",
			"primitives":[
				{
					"attributes":{
						"POSITION":19,
						"NORMAL":20,
						"TEXCOORD_0":21
					},
					"indices":15,
					"material":3
				}
			]
		},
		{
			"name":"Cube.007",
			"primitives":[
				{
					"attributes":{
						"POSITION":22,
						"NORMAL":23,
						"TEXCOORD_0":24
					},
					"indices":15,
					"material":4
				}
			]
		},
		{
			"name":"Cube.008",
			"primitives":[
				{
					"attributes":{
						"POSITION":25,
						"NORMAL":26,
						"TEXCOORD_0":27
					},
					"indices":15,
					"material":4
				}
			]
		},
		{
			"name":"Cube.009",
			"primitives":[
				{
					"attributes":{
						"POSITION":28,
						"NORMAL":29,
						"TEXCOORD_0":30
					},
					"indices":15,
					"material":4
				}
			]
		},
		{
			"name":"Cube.010",
			"primitives":[
				{
					"attributes":{
						"POSITION":31,
						"NORMAL":32,
						"TEXCOORD_0":33
					},
					"indices":34,
					"material":5
				}
			]
		},
		{
			"name":"Cube.011",
			"primitives":[
				{
					"attributes":{
						"POSITION":35,
						"NORMAL":36,
						"TEXCOORD_0":37
					},
					"indices":15,
					"material":5
				}
			]
		},
		{
			"name":"Plane",
			"primitives":[
				{
					"attributes":{
						"POSITION":38,
						"NORMAL":39,
						"TEXCOORD_0":40
					},
					"indices":41,
					"material":6
				}
			]
		},
		{
			"name":"Cube",
			"primitives":[
				{
					"attributes":{
						"POSITION":42,
						"NORMAL":43,
						"TEXCOORD_0":44
					},
					"indices":15
				}
			]
		},
		{
			"name":"Cube.001",
			"primitives":[
				{
					"attributes":{
						"POSITION":45,
						"NORMAL":46,
						"TEXCOORD_0":47
					},
					"indices":15
				}
			]
		},
		{
			"name":"Cube.014",
			"primitives":[
				{
					"attributes":{
						"POSITION":48,
						"NORMAL":49,
						"TEXCOORD_0":50
					},
					"indices":15
				}
			]
		},
		{
			"name":"Cube.015",
			"primitives":[
				{
					"attributes":{
						"POSITION":51,
						"NORMAL":52,
						"TEXCOORD_0":53
					},
					"indices":15
				}
			]
		},
		{
			"name":"Cube.016",
			"primitives":[
				{
					"attributes":{
						"POSITION":54,
						"NORMAL":55,
						"TEXCOORD_0":56
					},
					"indices":15
				}
			]
		},
		{
			"name":"Cube.017",
			"primitives":[
				{
					"attributes":{
						"POSITION":57,
						"NORMAL":58,
						"TEXCOORD_0":59
					},
					"indices":15
				}
			]
		}
	],
	"textures":[
		{
			"sampler":0,
			"source":0
		},
		{
			"sampler":0,
			"source":1
		},
		{
			"sampler":0,
			"source":2
		},
		{
			"sampler":0,
			"source":0
		},
		{
			"sampler":0,
			"source":1
		},
		{
			"sampler":0,
			"source":2
		},
		{
			"sampler":0,
			"source":3
		},
		{
			"sampler":0,
			"source":4
		},
		{
			"sampler":0,
			"source":5
		},
		{
			"sampler":0,
			"source":6
		},
		{
			"sampler":0,
			"source":7
		},
		{
			"sampler":0,
			"source":8
		}
	],
	"images":[
		{
			"mimeType":"image/png",
			"name":"asphalt_06_nor_gl_1k",
			"uri":"asphalt_06_nor_gl_1k.png"
		},
		{
			"mimeType":"image/jpeg",
			"name":"asphalt_06_ao_1k",
			"uri":"asphalt_06_ao_1k.jpg"
		},
		{
			"mimeType":"image/png",
			"name":"asphalt_06_rough_1k",
			"uri":"asphalt_06_rough_1k.png"
		},
		{
			"mimeType":"image/png",
			"name":"marble_tiles_nor_gl_1k",
			"uri":"marble_tiles_nor_gl_1k.png"
		},
		{
			"mimeType":"image/png",
			"name":"marble_tiles_ao_1k",
			"uri":"marble_tiles_ao_1k.png"
		},
		{
			"mimeType":"image/png",
			"name":"marble_tiles_arm_1k",
			"uri":"marble_tiles_arm_1k.png"
		},
		{
			"mimeType":"image/png",
			"name":"beige_wall_001_nor_gl_1k",
			"uri":"beige_wall_001_nor_gl_1k.png"
		},
		{
			"mimeType":"image/png",
			"name":"beige_wall_001_ao_1k",
			"uri":"beige_wall_001_ao_1k.png"
		},
		{
			"mimeType":"image/png",
			"name":"beige_wall_001_arm_1k",
			"uri":"beige_wall_001_arm_1k.png"
		}
	],
	"accessors":[
		{
			"bufferView":0,
			"componentType":5126,
			"count":12473,
			"max":[
				88.34671783447266,
				12.501925468444824,
				0.03510760888457298
			],
			"min":[
				-88.34671020507812,
				-12.990518569946289,
				-159.6442413330078
			],
			"type":"VEC3"
		},
		{
			"bufferView":1,
			"componentType":5126,
			"count":12473,
			"type":"VEC3"
		},
		{
			"bufferView":2,
			"componentType":5126,
			"count":12473,
			"type":"VEC2"
		},
		{
			"bufferView":3,
			"componentType":5123,
			"count":62520,
			"type":"SCALAR"
		},
		{
			"bufferView":4,
			"componentType":5126,
			"count":15901,
			"max":[
				90.25663757324219,
				17.174182891845703,
				0.0321853905916214
			],
			"min":[
				-90.25662231445312,
				-14.895705223083496,
				-180.88832092285156
			],
			"type":"VEC3"
		},
		{
			"bufferView":5,
			"componentType":5126,
			"count":15901,
			"type":"VEC3"
		},
		{
			"bufferView":6,
			"componentType":5126,
			"count":15901,
			"type":"VEC2"
		},
		{
			"bufferView":7,
			"componentType":5123,
			"count":84816,
			"type":"SCALAR"
		},
		{
			"bufferView":8,
			"componentType":5126,
			"count":96,
			"max":[
				1.2083332538604736,
				2.5,
				1.0833333730697632
			],
			"min":[
				-1.2083332538604736,
				-1,
				-1.0833333730697632
			],
			"type":"VEC3"
		},
		{
			"bufferView":9,
			"componentType":5126,
			"count":96,
			"type":"VEC3"
		},
		{
			"bufferView":10,
			"componentType":5126,
			"count":96,
			"type":"VEC2"
		},
		{
			"bufferView":11,
			"componentType":5123,
			"count":144,
			"type":"SCALAR"
		},
		{
			"bufferView":12,
			"componentType":5126,
			"count":24,
			"max":[
				1,
				1,
				1
			],
			"min":[
				-1,
				-1,
				-1
			],
			"type":"VEC3"
		},
		{
			"bufferView":13,
			"componentType":5126,
			"count":24,
			"type":"VEC3"
		},
		{
			"bufferView":14,
			"componentType":5126,
			"count":24,
			"type":"VEC2"
		},
		{
			"bufferView":15,
			"componentType":5123,
			"count":36,
			"type":"SCALAR"
		},
		{
			"bufferView":16,
			"componentType":5126,
			"count":24,
			"max":[
				1,
				1,
				1
			],
			"min":[
				-1,
				-1,
				-1
			],
			"type":"VEC3"
		},
		{
			"bufferView":17,
			"componentType":5126,
			"count":24,
			"type":"VEC3"
		},
		{
			"bufferView":18,
			"componentType":5126,
			"count":24,
			"type":"VEC2"
		},
		{
			"bufferView":19,
			"componentType":5126,
			"count":24,
			"max":[
				1,
				1,
				1
			],
			"min":[
				-1,
				-1,
				-1
			],
			"type":"VEC3"
		},
		{
			"bufferView":20,
			"componentType":5126,
			"count":24,
			"type":"VEC3"
		},
		{
			"bufferView":21,
			"componentType":5126,
			"count":24,
			"type":"VEC2"
		},
		{
			"bufferView":22,
			"componentType":5126,
			"count":24,
			"max":[
				1,
				1,
				1
			],
			"min":[
				-1,
				-1,
				-1
			],
			"type":"VEC3"
		},
		{
			"bufferView":23,
			"componentType":5126,
			"count":24,
			"type":"VEC3"
		},
		{
			"bufferView":24,
			"componentType":5126,
			"count":24,
			"type":"VEC2"
		},
		{
			"bufferView":25,
			"componentType":5126,
			"count":24,
			"max":[
				1,
				1,
				1
			],
			"min":[
				-1,
				-1,
				-1
			],
			"type":"VEC3"
		},
		{
			"bufferView":26,
			"componentType":5126,
			"count":24,
			"type":"VEC3"
		},
		{
			"bufferView":27,
			"componentType":5126,
			"count":24,
			"type":"VEC2"
		},
		{
			"bufferView":28,
			"componentType":5126,
			"count":24,
			"max":[
				1,
				1,
				1
			],
			"min":[
				-1,
				-1,
				-1
			],
			"type":"VEC3"
		},
		{
			"bufferView":29,
			"componentType":5126,
			"count":24,
			"type":"VEC3"
		},
		{
			"bufferView":30,
			"componentType":5126,
			"count":24,
			"type":"VEC2"
		},
		{
			"bufferView":31,
			"componentType":5126,
			"count":88,
			"max":[
				1.3499999046325684,
				2.25,
				1
			],
			"min":[
				-2.25,
				-1,
				-1.0000005960464478
			],
			"type":"VEC3"
		},
		{
			"bufferView":32,
			"componentType":5126,
			"count":88,
			"type":"VEC3"
		},
		{
			"bufferView":33,
			"componentType":5126,
			"count":88,
			"type":"VEC2"
		},
		{
			"bufferView":34,
			"componentType":5123,
			"count":132,
			"type":"SCALAR"
		},
		{
			"bufferView":35,
			"componentType":5126,
			"count":24,
			"max":[
				1,
				1,
				1
			],
			"min":[
				-1,
				-1,
				-1
			],
			"type":"VEC3"
		},
		{
			"bufferView":36,
			"componentType":5126,
			"count":24,
			"type":"VEC3"
		},
		{
			"bufferView":37,
			"componentType":5126,
			"count":24,
			"type":"VEC2"
		},
		{
			"bufferView":38,
			"componentType":5126,
			"count":4,
			"max":[
				1,
				0,
				1
			],
			"min":[
				-1,
				0,
				-1
			],
			"type":"VEC3"
		},
		{
			"bufferView":39,
			"componentType":5126,
			"count":4,
			"type":"VEC3"
		},
		{
			"bufferView":40,
			"componentType":5126,
			"count":4,
			"type":"VEC2"
		},
		{
			"bufferView":41,
			"componentType":5123,
			"count":6,
			"type":"SCALAR"
		},
		{
			"bufferView":42,
			"componentType":5126,
			"count":24,
			"max":[
				1,
				1,
				1
			],
			"min":[
				-1,
				-1,
				-1
			],
			"type":"VEC3"
		},
		{
			"bufferView":43,
			"componentType":5126,
			"count":24,
			"type":"VEC3"
		},
		{
			"bufferView":44,
			"componentType":5126,
			"count":24,
			"type":"VEC2"
		},
		{
			"bufferView":45,
			"componentType":5126,
			"count":24,
			"max":[
				1,
				1,
				1
			],
			"min":[
				-1,
				-1,
				-1
			],
			"type":"VEC3"
		},
		{
			"bufferView":46,
			"componentType":5126,
			"count":24,
			"type":"VEC3"
		},
		{
			"bufferView":47,
			"componentType":5126,
			"count":24,
			"type":"VEC2"
		},
		{
			"bufferView":48,
			"componentType":5126,
			"count":24,
			"max":[
				1,
				1,
				1
			],
			"min":[
				-1,
				-1,
				-1
			],
			"type":"VEC3"
		},
		{
			"bufferView":49,
			"componentType":5126,
			"count":24,
			"type":"VEC3"
		},
		{
			"bufferView":50,
			"componentType":5126,
			"count":24,
			"type":"VEC2"
		},
		{
			"bufferView":51,
			"componentType":5126,
			"count":24,
			"max":[
				1,
				1,
				1
			],
			"min":[
				-1,
				-1,
				-1
			],
			"type":"VEC3"
		},
		{
			"bufferView":52,
			"componentType":5126,
			"count":24,
			"type":"VEC3"
		},
		{
			"bufferView":53,
			"componentType":5126,
			"count":24,
			"type":"VEC2"
		},
		{
			"bufferView":54,
			"componentType":5126,
			"count":24,
			"max":[
				1,
				1,
				1
			],
			"min":[
				-1,
				-1,
				-1
			],
			"type":"VEC3"
		},
		{
			"bufferView":55,
			"componentType":5126,
			"count":24,
			"type":"VEC3"
		},
		{
			"bufferView":56,
			"componentType":5126,
			"count":24,
			"type":"VEC2"
		},
		{
			"bufferView":57,
			"componentType":5126,
			"count":24,
			"max":[
				1,
				1,
				1
			],
			"min":[
				-1,
				-1,
				-1
			],
			"type":"VEC3"
		},
		{
			"bufferView":58,
			"componentType":5126,
			"count":24,
			"type":"VEC3"
		},
		{
			"bufferView":59,
			"componentType":5126,
			"count":24,
			"type":"VEC2"
		}
	],
	"bufferViews":[
		{
			"buffer":0,
			"byteLength":149676,
			"byteOffset":0,
			"target":34962
		},
		{
			"buffer":0,
			"byteLength":149676,
			"byteOffset":149676,
			"target":34962
		},
		{
			"buffer":0,
			"byteLength":99784,
			"byteOffset":299352,
			"target":34962
		},
		{
			"buffer":0,
			"byteLength":125040,
			"byteOffset":399136,
			"target":34963
		},
		{
			"buffer":0,
			"byteLength":190812,
			"byteOffset":524176,
			"target":34962
		},
		{
			"buffer":0,
			"byteLength":190812,
			"byteOffset":714988,
			"target":34962
		},
		{
			"buffer":0,
			"byteLength":127208,
			"byteOffset":905800,
			"target":34962
		},
		{
			"buffer":0,
			"byteLength":169632,
			"byteOffset":1033008,
			"target":34963
		},
		{
			"buffer":0,
			"byteLength":1152,
			"byteOffset":1202640,
			"target":34962
		},
		{
			"buffer":0,
			"byteLength":1152,
			"byteOffset":1203792,
			"target":34962
		},
		{
			"buffer":0,
			"byteLength":768,
			"byteOffset":1204944,
			"target":34962
		},
		{
			"buffer":0,
			"byteLength":288,
			"byteOffset":1205712,
			"target":34963
		},
		{
			"buffer":0,
			"byteLength":288,
			"byteOffset":1206000,
			"target":34962
		},
		{
			"buffer":0,
			"byteLength":288,
			"byteOffset":1206288,
			"target":34962
		},
		{
			"buffer":0,
			"byteLength":192,
			"byteOffset":1206576,
			"target":34962
		},
		{
			"buffer":0,
			"byteLength":72,
			"byteOffset":1206768,
			"target":34963
		},
		{
			"buffer":0,
			"byteLength":288,
			"byteOffset":1206840,
			"target":34962
		},
		{
			"buffer":0,
			"byteLength":288,
			"byteOffset":1207128,
			"target":34962
		},
		{
			"buffer":0,
			"byteLength":192,
			"byteOffset":1207416,
			"target":34962
		},
		{
			"buffer":0,
			"byteLength":288,
			"byteOffset":1207608,
			"target":34962
		},
		{
			"buffer":0,
			"byteLength":288,
			"byteOffset":1207896,
			"target":34962
		},
		{
			"buffer":0,
			"byteLength":192,
			"byteOffset":1208184,
			"target":34962
		},
		{
			"buffer":0,
			"byteLength":288,
			"byteOffset":1208376,
			"target":34962
		},
		{
			"buffer":0,
			"byteLength":288,
			"byteOffset":1208664,
			"target":34962
		},
		{
			"buffer":0,
			"byteLength":192,
			"byteOffset":1208952,
			"target":34962
		},
		{
			"buffer":0,
			"byteLength":288,
			"byteOffset":1209144,
			"target":34962
		},
		{
			"buffer":0,
			"byteLength":288,
			"byteOffset":1209432,
			"target":34962
		},
		{
			"buffer":0,
			"byteLength":192,
			"byteOffset":1209720,
			"target":34962
		},
		{
			"buffer":0,
			"byteLength":288,
			"byteOffset":1209912,
			"target":34962
		},
		{
			"buffer":0,
			"byteLength":288,
			"byteOffset":1210200,
			"target":34962
		},
		{
			"buffer":0,
			"byteLength":192,
			"byteOffset":1210488,
			"target":34962
		},
		{
			"buffer":0,
			"byteLength":1056,
			"byteOffset":1210680,
			"target":34962
		},
		{
			"buffer":0,
			"byteLength":1056,
			"byteOffset":1211736,
			"target":34962
		},
		{
			"buffer":0,
			"byteLength":704,
			"byteOffset":1212792,
			"target":34962
		},
		{
			"buffer":0,
			"byteLength":264,
			"byteOffset":1213496,
			"target":34963
		},
		{
			"buffer":0,
			"byteLength":288,
			"byteOffset":1213760,
			"target":34962
		},
		{
			"buffer":0,
			"byteLength":288,
			"byteOffset":1214048,
			"target":34962
		},
		{
			"buffer":0,
			"byteLength":192,
			"byteOffset":1214336,
			"target":34962
		},
		{
			"buffer":0,
			"byteLength":48,
			"byteOffset":1214528,
			"target":34962
		},
		{
			"buffer":0,
			"byteLength":48,
			"byteOffset":1214576,
			"target":34962
		},
		{
			"buffer":0,
			"byteLength":32,
			"byteOffset":1214624,
			"target":34962
		},
		{
			"buffer":0,
			"byteLength":12,
			"byteOffset":1214656,
			"target":34963
		},
		{
			"buffer":0,
			"byteLength":288,
			"byteOffset":1214668,
			"target":34962
		},
		{
			"buffer":0,
			"byteLength":288,
			"byteOffset":1214956,
			"target":34962
		},
		{
			"buffer":0,
			"byteLength":192,
			"byteOffset":1215244,
			"target":34962
		},
		{
			"buffer":0,
			"byteLength":288,
			"byteOffset":1215436,
			"target":34962
		},
		{
			"buffer":0,
			"byteLength":288,
			"byteOffset":1215724,
			"target":34962
		},
		{
			"buffer":0,
			"byteLength":192,
			"byteOffset":1216012,
			"target":34962
		},
		{
			"buffer":0,
			"byteLength":288,
			"byteOffset":1216204,
			"target":34962
		},
		{
			"buffer":0,
			"byteLength":288,
			"byteOffset":1216492,
			"target":34962
		},
		{
			"buffer":0,
			"byteLength":192,
			"byteOffset":1216780,
			"target":34962
		},
		{
			"buffer":0,
			"byteLength":288,
			"byteOffset":1216972,
			"target":34962
		},
		{
			"buffer":0,
			"byteLength":288,
			"byteOffset":1217260,
			"target":34962
		},
		{
			"buffer":0,
			"byteLength":192,
			"byteOffset":1217548,
			"target":34962
		},
		{
			"buffer":0,
			"byteLength":288,
			"byteOffset":1217740,
			"target":34962
		},
		{
			"buffer":0,
			"byteLength":288,
			"byteOffset":1218028,
			"target":34962
		},
		{
			"buffer":0,
			"byteLength":192,
			"byteOffset":1218316,
			"target":34962
		},
		{
			"buffer":0,
			"byteLength":288,
			"byteOffset":1218508,
			"target":34962
		},
		{
			"buffer":0,
			"byteLength":288,
			"byteOffset":1218796,
			"target":34962
		},
		{
			"buffer":0,
			"byteLength":192,
			"byteOffset":1219084,
			"target":34962
		}
	],
	"samplers":[
		{
			"magFilter":9729,
			"minFilter":9987
		}
	],
	"buffers":[
		{
			"byteLength":1219276,
			"uri":"scene.bin"
		}
	]
}
