{
	"asset":{
		"generator":"Khronos glTF Blender I/O v4.4.56",
		"version":"2.0"
	},
	"extensionsUsed":[
		"KHR_materials_specular"
	],
	"scene":0,
	"scenes":[
		{
			"name":"Scene",
			"nodes":[
				0,
				1,
				2,
				3,
				4,
				5,
				6,
				7,
				8,
				9
			]
		}
	],
	"nodes":[
		{
			"mesh":0,
			"name":"human",
			"rotation":[
				0.70710688829422,
				0,
				0,
				0.7071066498756409
			],
			"scale":[
				0.07999999821186066,
				0.08000000566244125,
				0.08000000566244125
			],
			"translation":[
				-13.876718521118164,
				4.518513202667236,
				31.752166748046875
			]
		},
		{
			"mesh":1,
			"name":"\u5929\u4e95"
		},
		{
			"mesh":2,
			"name":"\u67f11"
		},
		{
			"mesh":3,
			"name":"\u67f13"
		},
		{
			"mesh":4,
			"name":"\u67f12"
		},
		{
			"mesh":5,
			"name":"Cube"
		},
		{
			"mesh":6,
			"name":"Cube.001"
		},
		{
			"mesh":7,
			"name":"Cube.002"
		},
		{
			"mesh":8,
			"name":"Cube.003"
		},
		{
			"mesh":9,
			"name":"Cube.004"
		}
	],
	"materials":[
		{
			"doubleSided":true,
			"extensions":{
				"KHR_materials_specular":{
					"specularColorFactor":[
						2.0,
						2.0,
						2.0
					]
				}
			},
			"name":"Beta_Joints_MAT1",
			"pbrMetallicRoughness":{
				"baseColorFactor":[
					0.723852276802063,
					0.723852276802063,
					0.723852276802063,
					1
				],
				"metallicFactor":0.5,
				"roughnessFactor":0.5527864098548889
			}
		},
		{
			"doubleSided":true,
			"extensions":{
				"KHR_materials_specular":{
					"specularColorFactor":[
						2.0,
						2.0,
						2.0
					]
				}
			},
			"name":"Beta_HighLimbsGeoSG3",
			"pbrMetallicRoughness":{
				"metallicFactor":0.12598425149917603
			}
		},
		{
			"doubleSided":true,
			"name":"\u67f1",
			"pbrMetallicRoughness":{
				"metallicFactor":0.800000011920929,
				"roughnessFactor":0.800000011920929
			}
		}
	],
	"meshes":[
		{
			"name":"Beta_Joints",
			"primitives":[
				{
					"attributes":{
						"POSITION":0,
						"NORMAL":1,
						"TEXCOORD_0":2
					},
					"indices":3,
					"material":0
				},
				{
					"attributes":{
						"POSITION":4,
						"NORMAL":5,
						"TEXCOORD_0":6
					},
					"indices":7,
					"material":1
				}
			]
		},
		{
			"name":"Cube.002",
			"primitives":[
				{
					"attributes":{
						"POSITION":8,
						"NORMAL":9,
						"TEXCOORD_0":10
					},
					"indices":11
				}
			]
		},
		{
			"name":"Cube.003",
			"primitives":[
				{
					"attributes":{
						"POSITION":12,
						"NORMAL":13,
						"TEXCOORD_0":14
					},
					"indices":15,
					"material":2
				}
			]
		},
		{
			"name":"Cube.005",
			"primitives":[
				{
					"attributes":{
						"POSITION":16,
						"NORMAL":17,
						"TEXCOORD_0":18
					},
					"indices":15,
					"material":2
				}
			]
		},
		{
			"name":"Cube.006",
			"primitives":[
				{
					"attributes":{
						"POSITION":19,
						"NORMAL":20,
						"TEXCOORD_0":21
					},
					"indices":15,
					"material":2
				}
			]
		},
		{
			"name":"Cube.007",
			"primitives":[
				{
					"attributes":{
						"POSITION":22,
						"NORMAL":23,
						"TEXCOORD_0":24
					},
					"indices":15
				}
			]
		},
		{
			"name":"Cube.008",
			"primitives":[
				{
					"attributes":{
						"POSITION":25,
						"NORMAL":26,
						"TEXCOORD_0":27
					},
					"indices":28
				}
			]
		},
		{
			"name":"Cube.009",
			"primitives":[
				{
					"attributes":{
						"POSITION":29,
						"NORMAL":30,
						"TEXCOORD_0":31
					},
					"indices":15
				}
			]
		},
		{
			"name":"Cube.010",
			"primitives":[
				{
					"attributes":{
						"POSITION":32,
						"NORMAL":33,
						"TEXCOORD_0":34
					},
					"indices":35
				}
			]
		},
		{
			"name":"Cube.011",
			"primitives":[
				{
					"attributes":{
						"POSITION":36,
						"NORMAL":37,
						"TEXCOORD_0":38
					},
					"indices":15
				}
			]
		}
	],
	"accessors":[
		{
			"bufferView":0,
			"componentType":5126,
			"count":12473,
			"max":[
				88.34671783447266,
				12.501925468444824,
				0.03510760888457298
			],
			"min":[
				-88.34671020507812,
				-12.990518569946289,
				-159.6442413330078
			],
			"type":"VEC3"
		},
		{
			"bufferView":1,
			"componentType":5126,
			"count":12473,
			"type":"VEC3"
		},
		{
			"bufferView":2,
			"componentType":5126,
			"count":12473,
			"type":"VEC2"
		},
		{
			"bufferView":3,
			"componentType":5123,
			"count":62520,
			"type":"SCALAR"
		},
		{
			"bufferView":4,
			"componentType":5126,
			"count":15901,
			"max":[
				90.25663757324219,
				17.174182891845703,
				0.0321853905916214
			],
			"min":[
				-90.25662231445312,
				-14.895705223083496,
				-180.88832092285156
			],
			"type":"VEC3"
		},
		{
			"bufferView":5,
			"componentType":5126,
			"count":15901,
			"type":"VEC3"
		},
		{
			"bufferView":6,
			"componentType":5126,
			"count":15901,
			"type":"VEC2"
		},
		{
			"bufferView":7,
			"componentType":5123,
			"count":84816,
			"type":"SCALAR"
		},
		{
			"bufferView":8,
			"componentType":5126,
			"count":96,
			"max":[
				34.79999923706055,
				54.34393310546875,
				45.261138916015625
			],
			"min":[
				-50.8483772277832,
				4.360969543457031,
				-36.400001525878906
			],
			"type":"VEC3"
		},
		{
			"bufferView":9,
			"componentType":5126,
			"count":96,
			"type":"VEC3"
		},
		{
			"bufferView":10,
			"componentType":5126,
			"count":96,
			"type":"VEC2"
		},
		{
			"bufferView":11,
			"componentType":5123,
			"count":180,
			"type":"SCALAR"
		},
		{
			"bufferView":12,
			"componentType":5126,
			"count":24,
			"max":[
				-15.31001091003418,
				43.9572639465332,
				-0.22833847999572754
			],
			"min":[
				-19.31001091003418,
				-4.426738739013672,
				-2.2283384799957275
			],
			"type":"VEC3"
		},
		{
			"bufferView":13,
			"componentType":5126,
			"count":24,
			"type":"VEC3"
		},
		{
			"bufferView":14,
			"componentType":5126,
			"count":24,
			"type":"VEC2"
		},
		{
			"bufferView":15,
			"componentType":5123,
			"count":36,
			"type":"SCALAR"
		},
		{
			"bufferView":16,
			"componentType":5126,
			"count":24,
			"max":[
				-15.31001091003418,
				43.9572639465332,
				-14.228338241577148
			],
			"min":[
				-19.31001091003418,
				-4.426738739013672,
				-16.22833824157715
			],
			"type":"VEC3"
		},
		{
			"bufferView":17,
			"componentType":5126,
			"count":24,
			"type":"VEC3"
		},
		{
			"bufferView":18,
			"componentType":5126,
			"count":24,
			"type":"VEC2"
		},
		{
			"bufferView":19,
			"componentType":5126,
			"count":24,
			"max":[
				-15.31001091003418,
				43.9572639465332,
				13.771661758422852
			],
			"min":[
				-19.31001091003418,
				-4.426738739013672,
				11.771661758422852
			],
			"type":"VEC3"
		},
		{
			"bufferView":20,
			"componentType":5126,
			"count":24,
			"type":"VEC3"
		},
		{
			"bufferView":21,
			"componentType":5126,
			"count":24,
			"type":"VEC2"
		},
		{
			"bufferView":22,
			"componentType":5126,
			"count":24,
			"max":[
				33.48731231689453,
				42.818077087402344,
				-33.73957824707031
			],
			"min":[
				-83.92963409423828,
				2.8180770874023438,
				-49.73957824707031
			],
			"type":"VEC3"
		},
		{
			"bufferView":23,
			"componentType":5126,
			"count":24,
			"type":"VEC3"
		},
		{
			"bufferView":24,
			"componentType":5126,
			"count":24,
			"type":"VEC2"
		},
		{
			"bufferView":25,
			"componentType":5126,
			"count":24,
			"max":[
				48.27903747558594,
				42.818077087402344,
				43.69132995605469
			],
			"min":[
				32.279029846191406,
				2.8180770874023438,
				-36.30867004394531
			],
			"type":"VEC3"
		},
		{
			"bufferView":26,
			"componentType":5126,
			"count":24,
			"type":"VEC3"
		},
		{
			"bufferView":27,
			"componentType":5126,
			"count":24,
			"type":"VEC2"
		},
		{
			"bufferView":28,
			"componentType":5123,
			"count":36,
			"type":"SCALAR"
		},
		{
			"bufferView":29,
			"componentType":5126,
			"count":24,
			"max":[
				32.617435455322266,
				45.32465362548828,
				-30.378005981445312
			],
			"min":[
				28.617435455322266,
				-1.4418926239013672,
				-34.37800598144531
			],
			"type":"VEC3"
		},
		{
			"bufferView":30,
			"componentType":5126,
			"count":24,
			"type":"VEC3"
		},
		{
			"bufferView":31,
			"componentType":5126,
			"count":24,
			"type":"VEC2"
		},
		{
			"bufferView":32,
			"componentType":5126,
			"count":72,
			"max":[
				54.75247573852539,
				4.702674865722656,
				86.8779525756836
			],
			"min":[
				-89.24752044677734,
				-3.2973289489746094,
				-43.122047424316406
			],
			"type":"VEC3"
		},
		{
			"bufferView":33,
			"componentType":5126,
			"count":72,
			"type":"VEC3"
		},
		{
			"bufferView":34,
			"componentType":5126,
			"count":72,
			"type":"VEC2"
		},
		{
			"bufferView":35,
			"componentType":5123,
			"count":132,
			"type":"SCALAR"
		},
		{
			"bufferView":36,
			"componentType":5126,
			"count":24,
			"max":[
				33.79716873168945,
				10.647065162658691,
				13.929794311523438
			],
			"min":[
				22.597169876098633,
				2.6470651626586914,
				-34.07020568847656
			],
			"type":"VEC3"
		},
		{
			"bufferView":37,
			"componentType":5126,
			"count":24,
			"type":"VEC3"
		},
		{
			"bufferView":38,
			"componentType":5126,
			"count":24,
			"type":"VEC2"
		}
	],
	"bufferViews":[
		{
			"buffer":0,
			"byteLength":149676,
			"byteOffset":0,
			"target":34962
		},
		{
			"buffer":0,
			"byteLength":149676,
			"byteOffset":149676,
			"target":34962
		},
		{
			"buffer":0,
			"byteLength":99784,
			"byteOffset":299352,
			"target":34962
		},
		{
			"buffer":0,
			"byteLength":125040,
			"byteOffset":399136,
			"target":34963
		},
		{
			"buffer":0,
			"byteLength":190812,
			"byteOffset":524176,
			"target":34962
		},
		{
			"buffer":0,
			"byteLength":190812,
			"byteOffset":714988,
			"target":34962
		},
		{
			"buffer":0,
			"byteLength":127208,
			"byteOffset":905800,
			"target":34962
		},
		{
			"buffer":0,
			"byteLength":169632,
			"byteOffset":1033008,
			"target":34963
		},
		{
			"buffer":0,
			"byteLength":1152,
			"byteOffset":1202640,
			"target":34962
		},
		{
			"buffer":0,
			"byteLength":1152,
			"byteOffset":1203792,
			"target":34962
		},
		{
			"buffer":0,
			"byteLength":768,
			"byteOffset":1204944,
			"target":34962
		},
		{
			"buffer":0,
			"byteLength":360,
			"byteOffset":1205712,
			"target":34963
		},
		{
			"buffer":0,
			"byteLength":288,
			"byteOffset":1206072,
			"target":34962
		},
		{
			"buffer":0,
			"byteLength":288,
			"byteOffset":1206360,
			"target":34962
		},
		{
			"buffer":0,
			"byteLength":192,
			"byteOffset":1206648,
			"target":34962
		},
		{
			"buffer":0,
			"byteLength":72,
			"byteOffset":1206840,
			"target":34963
		},
		{
			"buffer":0,
			"byteLength":288,
			"byteOffset":1206912,
			"target":34962
		},
		{
			"buffer":0,
			"byteLength":288,
			"byteOffset":1207200,
			"target":34962
		},
		{
			"buffer":0,
			"byteLength":192,
			"byteOffset":1207488,
			"target":34962
		},
		{
			"buffer":0,
			"byteLength":288,
			"byteOffset":1207680,
			"target":34962
		},
		{
			"buffer":0,
			"byteLength":288,
			"byteOffset":1207968,
			"target":34962
		},
		{
			"buffer":0,
			"byteLength":192,
			"byteOffset":1208256,
			"target":34962
		},
		{
			"buffer":0,
			"byteLength":288,
			"byteOffset":1208448,
			"target":34962
		},
		{
			"buffer":0,
			"byteLength":288,
			"byteOffset":1208736,
			"target":34962
		},
		{
			"buffer":0,
			"byteLength":192,
			"byteOffset":1209024,
			"target":34962
		},
		{
			"buffer":0,
			"byteLength":288,
			"byteOffset":1209216,
			"target":34962
		},
		{
			"buffer":0,
			"byteLength":288,
			"byteOffset":1209504,
			"target":34962
		},
		{
			"buffer":0,
			"byteLength":192,
			"byteOffset":1209792,
			"target":34962
		},
		{
			"buffer":0,
			"byteLength":72,
			"byteOffset":1209984,
			"target":34963
		},
		{
			"buffer":0,
			"byteLength":288,
			"byteOffset":1210056,
			"target":34962
		},
		{
			"buffer":0,
			"byteLength":288,
			"byteOffset":1210344,
			"target":34962
		},
		{
			"buffer":0,
			"byteLength":192,
			"byteOffset":1210632,
			"target":34962
		},
		{
			"buffer":0,
			"byteLength":864,
			"byteOffset":1210824,
			"target":34962
		},
		{
			"buffer":0,
			"byteLength":864,
			"byteOffset":1211688,
			"target":34962
		},
		{
			"buffer":0,
			"byteLength":576,
			"byteOffset":1212552,
			"target":34962
		},
		{
			"buffer":0,
			"byteLength":264,
			"byteOffset":1213128,
			"target":34963
		},
		{
			"buffer":0,
			"byteLength":288,
			"byteOffset":1213392,
			"target":34962
		},
		{
			"buffer":0,
			"byteLength":288,
			"byteOffset":1213680,
			"target":34962
		},
		{
			"buffer":0,
			"byteLength":192,
			"byteOffset":1213968,
			"target":34962
		}
	],
	"buffers":[
		{
			"byteLength":1214160,
			"uri":"scene.bin"
		}
	]
}
