{
	"asset":{
		"generator":"Khronos glTF Blender I/O v4.4.56",
		"version":"2.0"
	},
	"extensionsUsed":[
		"KHR_materials_specular"
	],
	"scene":0,
	"scenes":[
		{
			"name":"Scene",
			"nodes":[
				0,
				1,
				2,
				3,
				4,
				5,
				6,
				7,
				8,
				9,
				10,
				11,
				12,
				13,
				14,
				15,
				16
			]
		}
	],
	"nodes":[
		{
			"mesh":0,
			"name":"human",
			"rotation":[
				0.70710688829422,
				0,
				0,
				0.7071066498756409
			],
			"scale":[
				0.07999999821186066,
				0.08000000566244125,
				0.08000000566244125
			],
			"translation":[
				-13.876718521118164,
				4.518513202667236,
				31.752166748046875
			]
		},
		{
			"mesh":1,
			"name":"\u5929\u4e95",
			"scale":[
				28.80000114440918,
				4,
				33.599998474121094
			],
			"translation":[
				0,
				44.34393310546875,
				0
			]
		},
		{
			"mesh":2,
			"name":"\u67f11",
			"scale":[
				2,
				24.192001342773438,
				1
			],
			"translation":[
				-17.31001091003418,
				19.765262603759766,
				-1.2283384799957275
			]
		},
		{
			"mesh":3,
			"name":"\u67f13",
			"scale":[
				2,
				24.192001342773438,
				1
			],
			"translation":[
				-17.31001091003418,
				19.765262603759766,
				-15.228338241577148
			]
		},
		{
			"mesh":4,
			"name":"\u67f12",
			"scale":[
				2,
				24.192001342773438,
				1
			],
			"translation":[
				-17.31001091003418,
				19.765262603759766,
				12.771661758422852
			]
		},
		{
			"mesh":5,
			"name":"Cube",
			"scale":[
				58.708473205566406,
				20,
				8
			],
			"translation":[
				-25.221160888671875,
				22.818077087402344,
				-41.73957824707031
			]
		},
		{
			"mesh":6,
			"name":"Cube.001",
			"rotation":[
				0,
				0.7071068286895752,
				0,
				0.7071068286895752
			],
			"scale":[
				40,
				20,
				8
			],
			"translation":[
				40.27903366088867,
				22.818077087402344,
				3.6913299560546875
			]
		},
		{
			"mesh":7,
			"name":"Cube.002",
			"scale":[
				2,
				23.383272171020508,
				2
			],
			"translation":[
				30.617435455322266,
				21.94137954711914,
				-32.37800598144531
			]
		},
		{
			"mesh":8,
			"name":"Cube.003",
			"rotation":[
				0.7071068286895752,
				0,
				0,
				0.7071068286895752
			],
			"scale":[
				40,
				40,
				4
			],
			"translation":[
				0.7524785995483398,
				0.7026729583740234,
				-3.12204647064209
			]
		},
		{
			"mesh":9,
			"name":"Cube.004",
			"scale":[
				5.599999904632568,
				4,
				24
			],
			"translation":[
				28.19717025756836,
				6.647065162658691,
				-10.070205688476562
			]
		},
		{
			"mesh":10,
			"name":"Cube.005",
			"scale":[
				10,
				18,
				12
			],
			"translation":[
				21.57477569580078,
				17.48687744140625,
				123.19194030761719
			]
		},
		{
			"mesh":11,
			"name":"\u5e8a",
			"scale":[
				87.11000061035156,
				1,
				57.32999801635742
			],
			"translation":[
				-37.83798599243164,
				0.25176382064819336,
				129.0513153076172
			]
		},
		{
			"mesh":12,
			"name":"Cube.006",
			"scale":[
				10,
				18,
				12
			],
			"translation":[
				8.243367195129395,
				37.16850280761719,
				137.54627990722656
			]
		},
		{
			"mesh":13,
			"name":"Cube.007",
			"scale":[
				10,
				18,
				12
			],
			"translation":[
				14.915796279907227,
				10.109500885009766,
				144.6012725830078
			]
		},
		{
			"mesh":14,
			"name":"Cube.008",
			"scale":[
				10,
				18,
				12
			],
			"translation":[
				6.97451639175415,
				18.63302993774414,
				153.46681213378906
			]
		},
		{
			"mesh":15,
			"name":"Cube.009",
			"scale":[
				10,
				18,
				12
			],
			"translation":[
				1.565828800201416,
				30.44733428955078,
				147.756591796875
			]
		},
		{
			"name":"Cube.010",
			"scale":[
				10,
				10,
				10
			],
			"translation":[
				-209.71632385253906,
				4.896722793579102,
				-28.19275665283203
			]
		}
	],
	"materials":[
		{
			"doubleSided":true,
			"extensions":{
				"KHR_materials_specular":{
					"specularColorFactor":[
						2.0,
						2.0,
						2.0
					]
				}
			},
			"name":"Beta_Joints_MAT1",
			"pbrMetallicRoughness":{
				"baseColorFactor":[
					0.723852276802063,
					0.723852276802063,
					0.723852276802063,
					1
				],
				"metallicFactor":0.5,
				"roughnessFactor":0.5527864098548889
			}
		},
		{
			"doubleSided":true,
			"extensions":{
				"KHR_materials_specular":{
					"specularColorFactor":[
						2.0,
						2.0,
						2.0
					]
				}
			},
			"name":"Beta_HighLimbsGeoSG3",
			"pbrMetallicRoughness":{
				"metallicFactor":0.12598425149917603
			}
		},
		{
			"doubleSided":true,
			"name":"\u67f1",
			"pbrMetallicRoughness":{
				"metallicFactor":0.800000011920929,
				"roughnessFactor":0.800000011920929
			}
		}
	],
	"meshes":[
		{
			"name":"Beta_Joints",
			"primitives":[
				{
					"attributes":{
						"POSITION":0,
						"NORMAL":1,
						"TEXCOORD_0":2
					},
					"indices":3,
					"material":0
				},
				{
					"attributes":{
						"POSITION":4,
						"NORMAL":5,
						"TEXCOORD_0":6
					},
					"indices":7,
					"material":1
				}
			]
		},
		{
			"name":"Cube.002",
			"primitives":[
				{
					"attributes":{
						"POSITION":8,
						"NORMAL":9,
						"TEXCOORD_0":10
					},
					"indices":11
				}
			]
		},
		{
			"name":"Cube.003",
			"primitives":[
				{
					"attributes":{
						"POSITION":12,
						"NORMAL":13,
						"TEXCOORD_0":14
					},
					"indices":15,
					"material":2
				}
			]
		},
		{
			"name":"Cube.005",
			"primitives":[
				{
					"attributes":{
						"POSITION":16,
						"NORMAL":17,
						"TEXCOORD_0":18
					},
					"indices":15,
					"material":2
				}
			]
		},
		{
			"name":"Cube.006",
			"primitives":[
				{
					"attributes":{
						"POSITION":19,
						"NORMAL":20,
						"TEXCOORD_0":21
					},
					"indices":15,
					"material":2
				}
			]
		},
		{
			"name":"Cube.007",
			"primitives":[
				{
					"attributes":{
						"POSITION":22,
						"NORMAL":23,
						"TEXCOORD_0":24
					},
					"indices":15
				}
			]
		},
		{
			"name":"Cube.008",
			"primitives":[
				{
					"attributes":{
						"POSITION":25,
						"NORMAL":26,
						"TEXCOORD_0":27
					},
					"indices":15
				}
			]
		},
		{
			"name":"Cube.009",
			"primitives":[
				{
					"attributes":{
						"POSITION":28,
						"NORMAL":29,
						"TEXCOORD_0":30
					},
					"indices":15
				}
			]
		},
		{
			"name":"Cube.010",
			"primitives":[
				{
					"attributes":{
						"POSITION":31,
						"NORMAL":32,
						"TEXCOORD_0":33
					},
					"indices":34
				}
			]
		},
		{
			"name":"Cube.011",
			"primitives":[
				{
					"attributes":{
						"POSITION":35,
						"NORMAL":36,
						"TEXCOORD_0":37
					},
					"indices":15
				}
			]
		},
		{
			"name":"Cube",
			"primitives":[
				{
					"attributes":{
						"POSITION":38,
						"NORMAL":39,
						"TEXCOORD_0":40
					},
					"indices":15
				}
			]
		},
		{
			"name":"Cube.001",
			"primitives":[
				{
					"attributes":{
						"POSITION":41,
						"NORMAL":42,
						"TEXCOORD_0":43
					},
					"indices":15
				}
			]
		},
		{
			"name":"Cube.014",
			"primitives":[
				{
					"attributes":{
						"POSITION":44,
						"NORMAL":45,
						"TEXCOORD_0":46
					},
					"indices":15
				}
			]
		},
		{
			"name":"Cube.015",
			"primitives":[
				{
					"attributes":{
						"POSITION":47,
						"NORMAL":48,
						"TEXCOORD_0":49
					},
					"indices":15
				}
			]
		},
		{
			"name":"Cube.016",
			"primitives":[
				{
					"attributes":{
						"POSITION":50,
						"NORMAL":51,
						"TEXCOORD_0":52
					},
					"indices":15
				}
			]
		},
		{
			"name":"Cube.017",
			"primitives":[
				{
					"attributes":{
						"POSITION":53,
						"NORMAL":54,
						"TEXCOORD_0":55
					},
					"indices":15
				}
			]
		}
	],
	"accessors":[
		{
			"bufferView":0,
			"componentType":5126,
			"count":12473,
			"max":[
				88.34671783447266,
				12.501925468444824,
				0.03510760888457298
			],
			"min":[
				-88.34671020507812,
				-12.990518569946289,
				-159.6442413330078
			],
			"type":"VEC3"
		},
		{
			"bufferView":1,
			"componentType":5126,
			"count":12473,
			"type":"VEC3"
		},
		{
			"bufferView":2,
			"componentType":5126,
			"count":12473,
			"type":"VEC2"
		},
		{
			"bufferView":3,
			"componentType":5123,
			"count":62520,
			"type":"SCALAR"
		},
		{
			"bufferView":4,
			"componentType":5126,
			"count":15901,
			"max":[
				90.25663757324219,
				17.174182891845703,
				0.0321853905916214
			],
			"min":[
				-90.25662231445312,
				-14.895705223083496,
				-180.88832092285156
			],
			"type":"VEC3"
		},
		{
			"bufferView":5,
			"componentType":5126,
			"count":15901,
			"type":"VEC3"
		},
		{
			"bufferView":6,
			"componentType":5126,
			"count":15901,
			"type":"VEC2"
		},
		{
			"bufferView":7,
			"componentType":5123,
			"count":84816,
			"type":"SCALAR"
		},
		{
			"bufferView":8,
			"componentType":5126,
			"count":96,
			"max":[
				1.2083332538604736,
				2.5,
				1.347057819366455
			],
			"min":[
				-1.7655686140060425,
				-9.99574089050293,
				-1.0833333730697632
			],
			"type":"VEC3"
		},
		{
			"bufferView":9,
			"componentType":5126,
			"count":96,
			"type":"VEC3"
		},
		{
			"bufferView":10,
			"componentType":5126,
			"count":96,
			"type":"VEC2"
		},
		{
			"bufferView":11,
			"componentType":5123,
			"count":180,
			"type":"SCALAR"
		},
		{
			"bufferView":12,
			"componentType":5126,
			"count":24,
			"max":[
				1,
				1,
				1
			],
			"min":[
				-1,
				-1,
				-1
			],
			"type":"VEC3"
		},
		{
			"bufferView":13,
			"componentType":5126,
			"count":24,
			"type":"VEC3"
		},
		{
			"bufferView":14,
			"componentType":5126,
			"count":24,
			"type":"VEC2"
		},
		{
			"bufferView":15,
			"componentType":5123,
			"count":36,
			"type":"SCALAR"
		},
		{
			"bufferView":16,
			"componentType":5126,
			"count":24,
			"max":[
				1,
				1,
				1
			],
			"min":[
				-1,
				-1,
				-1
			],
			"type":"VEC3"
		},
		{
			"bufferView":17,
			"componentType":5126,
			"count":24,
			"type":"VEC3"
		},
		{
			"bufferView":18,
			"componentType":5126,
			"count":24,
			"type":"VEC2"
		},
		{
			"bufferView":19,
			"componentType":5126,
			"count":24,
			"max":[
				1,
				1,
				1
			],
			"min":[
				-1,
				-1,
				-1
			],
			"type":"VEC3"
		},
		{
			"bufferView":20,
			"componentType":5126,
			"count":24,
			"type":"VEC3"
		},
		{
			"bufferView":21,
			"componentType":5126,
			"count":24,
			"type":"VEC2"
		},
		{
			"bufferView":22,
			"componentType":5126,
			"count":24,
			"max":[
				1,
				1,
				1
			],
			"min":[
				-1,
				-1,
				-1
			],
			"type":"VEC3"
		},
		{
			"bufferView":23,
			"componentType":5126,
			"count":24,
			"type":"VEC3"
		},
		{
			"bufferView":24,
			"componentType":5126,
			"count":24,
			"type":"VEC2"
		},
		{
			"bufferView":25,
			"componentType":5126,
			"count":24,
			"max":[
				1,
				1,
				1
			],
			"min":[
				-1,
				-1,
				-1
			],
			"type":"VEC3"
		},
		{
			"bufferView":26,
			"componentType":5126,
			"count":24,
			"type":"VEC3"
		},
		{
			"bufferView":27,
			"componentType":5126,
			"count":24,
			"type":"VEC2"
		},
		{
			"bufferView":28,
			"componentType":5126,
			"count":24,
			"max":[
				1,
				1,
				1
			],
			"min":[
				-1,
				-1,
				-1
			],
			"type":"VEC3"
		},
		{
			"bufferView":29,
			"componentType":5126,
			"count":24,
			"type":"VEC3"
		},
		{
			"bufferView":30,
			"componentType":5126,
			"count":24,
			"type":"VEC2"
		},
		{
			"bufferView":31,
			"componentType":5126,
			"count":72,
			"max":[
				1.3499999046325684,
				2.25,
				1
			],
			"min":[
				-2.25,
				-1,
				-1.0000005960464478
			],
			"type":"VEC3"
		},
		{
			"bufferView":32,
			"componentType":5126,
			"count":72,
			"type":"VEC3"
		},
		{
			"bufferView":33,
			"componentType":5126,
			"count":72,
			"type":"VEC2"
		},
		{
			"bufferView":34,
			"componentType":5123,
			"count":132,
			"type":"SCALAR"
		},
		{
			"bufferView":35,
			"componentType":5126,
			"count":24,
			"max":[
				1,
				1,
				1
			],
			"min":[
				-1,
				-1,
				-1
			],
			"type":"VEC3"
		},
		{
			"bufferView":36,
			"componentType":5126,
			"count":24,
			"type":"VEC3"
		},
		{
			"bufferView":37,
			"componentType":5126,
			"count":24,
			"type":"VEC2"
		},
		{
			"bufferView":38,
			"componentType":5126,
			"count":24,
			"max":[
				1,
				1,
				1
			],
			"min":[
				-1,
				-1,
				-1
			],
			"type":"VEC3"
		},
		{
			"bufferView":39,
			"componentType":5126,
			"count":24,
			"type":"VEC3"
		},
		{
			"bufferView":40,
			"componentType":5126,
			"count":24,
			"type":"VEC2"
		},
		{
			"bufferView":41,
			"componentType":5126,
			"count":24,
			"max":[
				1,
				1,
				1
			],
			"min":[
				-1,
				-1,
				-1
			],
			"type":"VEC3"
		},
		{
			"bufferView":42,
			"componentType":5126,
			"count":24,
			"type":"VEC3"
		},
		{
			"bufferView":43,
			"componentType":5126,
			"count":24,
			"type":"VEC2"
		},
		{
			"bufferView":44,
			"componentType":5126,
			"count":24,
			"max":[
				1,
				1,
				1
			],
			"min":[
				-1,
				-1,
				-1
			],
			"type":"VEC3"
		},
		{
			"bufferView":45,
			"componentType":5126,
			"count":24,
			"type":"VEC3"
		},
		{
			"bufferView":46,
			"componentType":5126,
			"count":24,
			"type":"VEC2"
		},
		{
			"bufferView":47,
			"componentType":5126,
			"count":24,
			"max":[
				1,
				1,
				1
			],
			"min":[
				-1,
				-1,
				-1
			],
			"type":"VEC3"
		},
		{
			"bufferView":48,
			"componentType":5126,
			"count":24,
			"type":"VEC3"
		},
		{
			"bufferView":49,
			"componentType":5126,
			"count":24,
			"type":"VEC2"
		},
		{
			"bufferView":50,
			"componentType":5126,
			"count":24,
			"max":[
				1,
				1,
				1
			],
			"min":[
				-1,
				-1,
				-1
			],
			"type":"VEC3"
		},
		{
			"bufferView":51,
			"componentType":5126,
			"count":24,
			"type":"VEC3"
		},
		{
			"bufferView":52,
			"componentType":5126,
			"count":24,
			"type":"VEC2"
		},
		{
			"bufferView":53,
			"componentType":5126,
			"count":24,
			"max":[
				1,
				1,
				1
			],
			"min":[
				-1,
				-1,
				-1
			],
			"type":"VEC3"
		},
		{
			"bufferView":54,
			"componentType":5126,
			"count":24,
			"type":"VEC3"
		},
		{
			"bufferView":55,
			"componentType":5126,
			"count":24,
			"type":"VEC2"
		}
	],
	"bufferViews":[
		{
			"buffer":0,
			"byteLength":149676,
			"byteOffset":0,
			"target":34962
		},
		{
			"buffer":0,
			"byteLength":149676,
			"byteOffset":149676,
			"target":34962
		},
		{
			"buffer":0,
			"byteLength":99784,
			"byteOffset":299352,
			"target":34962
		},
		{
			"buffer":0,
			"byteLength":125040,
			"byteOffset":399136,
			"target":34963
		},
		{
			"buffer":0,
			"byteLength":190812,
			"byteOffset":524176,
			"target":34962
		},
		{
			"buffer":0,
			"byteLength":190812,
			"byteOffset":714988,
			"target":34962
		},
		{
			"buffer":0,
			"byteLength":127208,
			"byteOffset":905800,
			"target":34962
		},
		{
			"buffer":0,
			"byteLength":169632,
			"byteOffset":1033008,
			"target":34963
		},
		{
			"buffer":0,
			"byteLength":1152,
			"byteOffset":1202640,
			"target":34962
		},
		{
			"buffer":0,
			"byteLength":1152,
			"byteOffset":1203792,
			"target":34962
		},
		{
			"buffer":0,
			"byteLength":768,
			"byteOffset":1204944,
			"target":34962
		},
		{
			"buffer":0,
			"byteLength":360,
			"byteOffset":1205712,
			"target":34963
		},
		{
			"buffer":0,
			"byteLength":288,
			"byteOffset":1206072,
			"target":34962
		},
		{
			"buffer":0,
			"byteLength":288,
			"byteOffset":1206360,
			"target":34962
		},
		{
			"buffer":0,
			"byteLength":192,
			"byteOffset":1206648,
			"target":34962
		},
		{
			"buffer":0,
			"byteLength":72,
			"byteOffset":1206840,
			"target":34963
		},
		{
			"buffer":0,
			"byteLength":288,
			"byteOffset":1206912,
			"target":34962
		},
		{
			"buffer":0,
			"byteLength":288,
			"byteOffset":1207200,
			"target":34962
		},
		{
			"buffer":0,
			"byteLength":192,
			"byteOffset":1207488,
			"target":34962
		},
		{
			"buffer":0,
			"byteLength":288,
			"byteOffset":1207680,
			"target":34962
		},
		{
			"buffer":0,
			"byteLength":288,
			"byteOffset":1207968,
			"target":34962
		},
		{
			"buffer":0,
			"byteLength":192,
			"byteOffset":1208256,
			"target":34962
		},
		{
			"buffer":0,
			"byteLength":288,
			"byteOffset":1208448,
			"target":34962
		},
		{
			"buffer":0,
			"byteLength":288,
			"byteOffset":1208736,
			"target":34962
		},
		{
			"buffer":0,
			"byteLength":192,
			"byteOffset":1209024,
			"target":34962
		},
		{
			"buffer":0,
			"byteLength":288,
			"byteOffset":1209216,
			"target":34962
		},
		{
			"buffer":0,
			"byteLength":288,
			"byteOffset":1209504,
			"target":34962
		},
		{
			"buffer":0,
			"byteLength":192,
			"byteOffset":1209792,
			"target":34962
		},
		{
			"buffer":0,
			"byteLength":288,
			"byteOffset":1209984,
			"target":34962
		},
		{
			"buffer":0,
			"byteLength":288,
			"byteOffset":1210272,
			"target":34962
		},
		{
			"buffer":0,
			"byteLength":192,
			"byteOffset":1210560,
			"target":34962
		},
		{
			"buffer":0,
			"byteLength":864,
			"byteOffset":1210752,
			"target":34962
		},
		{
			"buffer":0,
			"byteLength":864,
			"byteOffset":1211616,
			"target":34962
		},
		{
			"buffer":0,
			"byteLength":576,
			"byteOffset":1212480,
			"target":34962
		},
		{
			"buffer":0,
			"byteLength":264,
			"byteOffset":1213056,
			"target":34963
		},
		{
			"buffer":0,
			"byteLength":288,
			"byteOffset":1213320,
			"target":34962
		},
		{
			"buffer":0,
			"byteLength":288,
			"byteOffset":1213608,
			"target":34962
		},
		{
			"buffer":0,
			"byteLength":192,
			"byteOffset":1213896,
			"target":34962
		},
		{
			"buffer":0,
			"byteLength":288,
			"byteOffset":1214088,
			"target":34962
		},
		{
			"buffer":0,
			"byteLength":288,
			"byteOffset":1214376,
			"target":34962
		},
		{
			"buffer":0,
			"byteLength":192,
			"byteOffset":1214664,
			"target":34962
		},
		{
			"buffer":0,
			"byteLength":288,
			"byteOffset":1214856,
			"target":34962
		},
		{
			"buffer":0,
			"byteLength":288,
			"byteOffset":1215144,
			"target":34962
		},
		{
			"buffer":0,
			"byteLength":192,
			"byteOffset":1215432,
			"target":34962
		},
		{
			"buffer":0,
			"byteLength":288,
			"byteOffset":1215624,
			"target":34962
		},
		{
			"buffer":0,
			"byteLength":288,
			"byteOffset":1215912,
			"target":34962
		},
		{
			"buffer":0,
			"byteLength":192,
			"byteOffset":1216200,
			"target":34962
		},
		{
			"buffer":0,
			"byteLength":288,
			"byteOffset":1216392,
			"target":34962
		},
		{
			"buffer":0,
			"byteLength":288,
			"byteOffset":1216680,
			"target":34962
		},
		{
			"buffer":0,
			"byteLength":192,
			"byteOffset":1216968,
			"target":34962
		},
		{
			"buffer":0,
			"byteLength":288,
			"byteOffset":1217160,
			"target":34962
		},
		{
			"buffer":0,
			"byteLength":288,
			"byteOffset":1217448,
			"target":34962
		},
		{
			"buffer":0,
			"byteLength":192,
			"byteOffset":1217736,
			"target":34962
		},
		{
			"buffer":0,
			"byteLength":288,
			"byteOffset":1217928,
			"target":34962
		},
		{
			"buffer":0,
			"byteLength":288,
			"byteOffset":1218216,
			"target":34962
		},
		{
			"buffer":0,
			"byteLength":192,
			"byteOffset":1218504,
			"target":34962
		}
	],
	"buffers":[
		{
			"byteLength":1218696,
			"uri":"scene.bin"
		}
	]
}
