# Blender 4.2.3 LTS
# www.blender.org
mtllib star.mtl
o 立方体
v -0.848528 0.000000 0.120000
v 0.000000 0.848528 0.120000
v -0.848528 -0.000000 -0.120000
v 0.000000 0.848528 -0.120000
v 0.000000 -0.848528 0.120000
v 0.848528 0.000000 0.120000
v 0.000000 -0.848528 -0.120000
v 0.848528 -0.000000 -0.120000
v -0.184264 -0.184264 -0.120000
v 0.184264 0.184264 -0.120000
v -0.184264 -0.184264 0.120000
v 0.184264 0.184264 0.120000
v -0.184264 0.184264 0.120000
v -0.184264 0.184264 -0.120000
v 0.184264 -0.184264 -0.120000
v 0.184264 -0.184264 0.120000
v 0.000000 0.000000 0.234856
v 0.000000 -0.000000 -0.189039
vn -0.9636 0.2673 -0.0000
vn 0.0811 -0.0000 -0.9967
vn 0.2673 -0.9636 -0.0000
vn -0.0000 0.1341 0.9910
vn -0.9636 -0.2673 -0.0000
vn 0.9636 0.2673 -0.0000
vn 0.2673 0.9636 -0.0000
vn -0.2673 -0.9636 -0.0000
vn 0.1341 -0.0000 0.9910
vn -0.0000 0.0811 -0.9967
vn -0.0811 -0.0000 -0.9967
vn -0.0000 -0.1341 0.9910
vn -0.1341 -0.0000 0.9910
vn 0.9636 -0.2673 -0.0000
vn -0.0000 -0.0811 -0.9967
vn -0.2673 0.9636 -0.0000
vt 0.500000 0.000000
vt 0.625000 0.000000
vt 0.625000 0.250000
vt 0.500000 0.250000
vt 0.500000 0.375000
vt 0.625000 0.375000
vt 0.625000 0.500000
vt 0.500000 0.500000
vt 0.625000 0.750000
vt 0.500000 0.750000
vt 0.500000 0.875000
vt 0.625000 0.875000
vt 0.625000 1.000000
vt 0.500000 1.000000
vt 0.250000 0.500000
vt 0.375000 0.500000
vt 0.375000 0.750000
vt 0.250000 0.750000
vt 0.750000 0.500000
vt 0.875000 0.500000
vt 0.875000 0.750000
vt 0.750000 0.750000
vt 0.125000 0.500000
vt 0.125000 0.750000
vt 0.375000 0.250000
vt 0.375000 0.375000
vt 0.375000 0.875000
vt 0.375000 1.000000
vt 0.375000 0.000000
s 0
usemtl マテリアル
f 13/1/1 2/2/1 4/3/1 14/4/1
f 18/5/2 10/6/2 8/7/2 15/8/2
f 15/8/3 8/7/3 6/9/3 16/10/3
f 17/11/4 12/12/4 2/13/4 13/14/4
f 9/15/5 7/16/5 5/17/5 11/18/5
f 10/19/6 4/20/6 2/21/6 12/22/6
f 8/7/7 10/19/7 12/22/7 6/9/7
f 3/23/8 9/15/8 11/18/8 1/24/8
f 16/10/9 6/9/9 12/12/9 17/11/9
f 14/4/10 4/3/10 10/6/10 18/5/10
f 3/25/11 14/4/11 18/5/11 9/26/11
f 5/17/12 16/10/12 17/11/12 11/27/12
f 11/27/13 17/11/13 13/14/13 1/28/13
f 7/16/14 15/8/14 16/10/14 5/17/14
f 9/26/15 18/5/15 15/8/15 7/16/15
f 1/29/16 13/1/16 14/4/16 3/25/16
