{
	"asset":{
		"generator":"Khronos glTF Blender I/O v4.2.70",
		"version":"2.0"
	},
	"scene":0,
	"scenes":[
		{
			"name":"Scene",
			"nodes":[
				4
			]
		}
	],
	"nodes":[
		{
			"name":"\u30dc\u30fc\u30f3.001_end",
			"translation":[
				0,
				0.4158691167831421,
				3.1720657543921277e-15
			]
		},
		{
			"children":[
				0
			],
			"name":"\u30dc\u30fc\u30f3.001",
			"translation":[
				0,
				0.45984774827957153,
				-3.552713678800501e-15
			]
		},
		{
			"children":[
				1
			],
			"name":"\u30dc\u30fc\u30f3",
			"translation":[
				0.1197512149810791,
				0.07460838556289673,
				0
			]
		},
		{
			"mesh":0,
			"name":"Cube",
			"skin":0
		},
		{
			"children":[
				3,
				2
			],
			"name":"\u30a2\u30fc\u30de\u30c1\u30e5\u30a2",
			"scale":[
				1,
				0.5600000023841858,
				1
			],
			"translation":[
				-0.06579375267028809,
				0,
				0
			]
		}
	],
	"animations":[
		{
			"channels":[
				{
					"sampler":0,
					"target":{
						"node":2,
						"path":"translation"
					}
				},
				{
					"sampler":1,
					"target":{
						"node":2,
						"path":"rotation"
					}
				},
				{
					"sampler":2,
					"target":{
						"node":2,
						"path":"scale"
					}
				},
				{
					"sampler":3,
					"target":{
						"node":1,
						"path":"translation"
					}
				},
				{
					"sampler":4,
					"target":{
						"node":1,
						"path":"rotation"
					}
				},
				{
					"sampler":5,
					"target":{
						"node":1,
						"path":"scale"
					}
				},
				{
					"sampler":6,
					"target":{
						"node":0,
						"path":"translation"
					}
				},
				{
					"sampler":7,
					"target":{
						"node":0,
						"path":"rotation"
					}
				},
				{
					"sampler":8,
					"target":{
						"node":0,
						"path":"scale"
					}
				},
				{
					"sampler":9,
					"target":{
						"node":4,
						"path":"translation"
					}
				},
				{
					"sampler":10,
					"target":{
						"node":4,
						"path":"rotation"
					}
				},
				{
					"sampler":11,
					"target":{
						"node":4,
						"path":"scale"
					}
				}
			],
			"name":"\u30a2\u30fc\u30de\u30c1\u30e5\u30a2|\u30a2\u30fc\u30de\u30c1\u30e5\u30a2|\u30a2\u30fc\u30de\u30c1\u30e5\u30a2Action",
			"samplers":[
				{
					"input":7,
					"interpolation":"LINEAR",
					"output":8
				},
				{
					"input":9,
					"interpolation":"STEP",
					"output":10
				},
				{
					"input":7,
					"interpolation":"LINEAR",
					"output":11
				},
				{
					"input":9,
					"interpolation":"LINEAR",
					"output":12
				},
				{
					"input":9,
					"interpolation":"LINEAR",
					"output":13
				},
				{
					"input":9,
					"interpolation":"LINEAR",
					"output":14
				},
				{
					"input":9,
					"interpolation":"STEP",
					"output":15
				},
				{
					"input":9,
					"interpolation":"STEP",
					"output":16
				},
				{
					"input":9,
					"interpolation":"STEP",
					"output":17
				},
				{
					"input":9,
					"interpolation":"STEP",
					"output":18
				},
				{
					"input":9,
					"interpolation":"STEP",
					"output":19
				},
				{
					"input":9,
					"interpolation":"STEP",
					"output":20
				}
			]
		},
		{
			"channels":[
				{
					"sampler":0,
					"target":{
						"node":2,
						"path":"translation"
					}
				},
				{
					"sampler":1,
					"target":{
						"node":2,
						"path":"rotation"
					}
				},
				{
					"sampler":2,
					"target":{
						"node":2,
						"path":"scale"
					}
				},
				{
					"sampler":3,
					"target":{
						"node":1,
						"path":"translation"
					}
				},
				{
					"sampler":4,
					"target":{
						"node":1,
						"path":"rotation"
					}
				},
				{
					"sampler":5,
					"target":{
						"node":1,
						"path":"scale"
					}
				},
				{
					"sampler":6,
					"target":{
						"node":0,
						"path":"translation"
					}
				},
				{
					"sampler":7,
					"target":{
						"node":0,
						"path":"rotation"
					}
				},
				{
					"sampler":8,
					"target":{
						"node":0,
						"path":"scale"
					}
				}
			],
			"name":"\u30a2\u30fc\u30de\u30c1\u30e5\u30a2\u30a2\u30af\u30b7\u30e7\u30f3.001_\u30a2\u30fc\u30de\u30c1\u30e5\u30a2",
			"samplers":[
				{
					"input":21,
					"interpolation":"LINEAR",
					"output":22
				},
				{
					"input":21,
					"interpolation":"LINEAR",
					"output":23
				},
				{
					"input":21,
					"interpolation":"LINEAR",
					"output":24
				},
				{
					"input":25,
					"interpolation":"LINEAR",
					"output":26
				},
				{
					"input":21,
					"interpolation":"LINEAR",
					"output":27
				},
				{
					"input":21,
					"interpolation":"LINEAR",
					"output":28
				},
				{
					"input":21,
					"interpolation":"LINEAR",
					"output":29
				},
				{
					"input":25,
					"interpolation":"STEP",
					"output":30
				},
				{
					"input":25,
					"interpolation":"STEP",
					"output":31
				}
			]
		}
	],
	"materials":[
		{
			"doubleSided":true,
			"name":"Material.002",
			"pbrMetallicRoughness":{
				"baseColorFactor":[
					0.800000011920929,
					0.800000011920929,
					0.800000011920929,
					1
				],
				"metallicFactor":0,
				"roughnessFactor":0.5
			}
		}
	],
	"meshes":[
		{
			"name":"Cube.002",
			"primitives":[
				{
					"attributes":{
						"POSITION":0,
						"NORMAL":1,
						"TEXCOORD_0":2,
						"JOINTS_0":3,
						"WEIGHTS_0":4
					},
					"indices":5,
					"material":0
				}
			]
		}
	],
	"skins":[
		{
			"inverseBindMatrices":6,
			"joints":[
				2,
				1,
				0
			],
			"name":"\u30a2\u30fc\u30de\u30c1\u30e5\u30a2"
		}
	],
	"accessors":[
		{
			"bufferView":0,
			"componentType":5126,
			"count":441,
			"max":[
				0.719389021396637,
				0.6180759072303772,
				0.7193889617919922
			],
			"min":[
				-0.719389021396637,
				-0.020912641659379005,
				-0.7193890810012817
			],
			"type":"VEC3"
		},
		{
			"bufferView":1,
			"componentType":5126,
			"count":441,
			"type":"VEC3"
		},
		{
			"bufferView":2,
			"componentType":5126,
			"count":441,
			"type":"VEC2"
		},
		{
			"bufferView":3,
			"componentType":5121,
			"count":441,
			"type":"VEC4"
		},
		{
			"bufferView":4,
			"componentType":5126,
			"count":441,
			"type":"VEC4"
		},
		{
			"bufferView":5,
			"componentType":5123,
			"count":2304,
			"type":"SCALAR"
		},
		{
			"bufferView":6,
			"componentType":5126,
			"count":3,
			"type":"MAT4"
		},
		{
			"bufferView":7,
			"componentType":5126,
			"count":51,
			"max":[
				0.85
			],
			"min":[
				0.016666666666666666
			],
			"type":"SCALAR"
		},
		{
			"bufferView":8,
			"componentType":5126,
			"count":51,
			"type":"VEC3"
		},
		{
			"bufferView":9,
			"componentType":5126,
			"count":2,
			"max":[
				0.85
			],
			"min":[
				0.016666666666666666
			],
			"type":"SCALAR"
		},
		{
			"bufferView":10,
			"componentType":5126,
			"count":2,
			"type":"VEC4"
		},
		{
			"bufferView":11,
			"componentType":5126,
			"count":51,
			"type":"VEC3"
		},
		{
			"bufferView":12,
			"componentType":5126,
			"count":2,
			"type":"VEC3"
		},
		{
			"bufferView":13,
			"componentType":5126,
			"count":2,
			"type":"VEC4"
		},
		{
			"bufferView":14,
			"componentType":5126,
			"count":2,
			"type":"VEC3"
		},
		{
			"bufferView":15,
			"componentType":5126,
			"count":2,
			"type":"VEC3"
		},
		{
			"bufferView":16,
			"componentType":5126,
			"count":2,
			"type":"VEC4"
		},
		{
			"bufferView":17,
			"componentType":5126,
			"count":2,
			"type":"VEC3"
		},
		{
			"bufferView":18,
			"componentType":5126,
			"count":2,
			"type":"VEC3"
		},
		{
			"bufferView":19,
			"componentType":5126,
			"count":2,
			"type":"VEC4"
		},
		{
			"bufferView":20,
			"componentType":5126,
			"count":2,
			"type":"VEC3"
		},
		{
			"bufferView":21,
			"componentType":5126,
			"count":15,
			"max":[
				0.23333333333333334
			],
			"min":[
				0
			],
			"type":"SCALAR"
		},
		{
			"bufferView":22,
			"componentType":5126,
			"count":15,
			"type":"VEC3"
		},
		{
			"bufferView":23,
			"componentType":5126,
			"count":15,
			"type":"VEC4"
		},
		{
			"bufferView":24,
			"componentType":5126,
			"count":15,
			"type":"VEC3"
		},
		{
			"bufferView":25,
			"componentType":5126,
			"count":2,
			"max":[
				0.23333333333333334
			],
			"min":[
				0
			],
			"type":"SCALAR"
		},
		{
			"bufferView":26,
			"componentType":5126,
			"count":2,
			"type":"VEC3"
		},
		{
			"bufferView":27,
			"componentType":5126,
			"count":15,
			"type":"VEC4"
		},
		{
			"bufferView":28,
			"componentType":5126,
			"count":15,
			"type":"VEC3"
		},
		{
			"bufferView":29,
			"componentType":5126,
			"count":15,
			"type":"VEC3"
		},
		{
			"bufferView":30,
			"componentType":5126,
			"count":2,
			"type":"VEC4"
		},
		{
			"bufferView":31,
			"componentType":5126,
			"count":2,
			"type":"VEC3"
		}
	],
	"bufferViews":[
		{
			"buffer":0,
			"byteLength":5292,
			"byteOffset":0,
			"target":34962
		},
		{
			"buffer":0,
			"byteLength":5292,
			"byteOffset":5292,
			"target":34962
		},
		{
			"buffer":0,
			"byteLength":3528,
			"byteOffset":10584,
			"target":34962
		},
		{
			"buffer":0,
			"byteLength":1764,
			"byteOffset":14112,
			"target":34962
		},
		{
			"buffer":0,
			"byteLength":7056,
			"byteOffset":15876,
			"target":34962
		},
		{
			"buffer":0,
			"byteLength":4608,
			"byteOffset":22932,
			"target":34963
		},
		{
			"buffer":0,
			"byteLength":192,
			"byteOffset":27540
		},
		{
			"buffer":0,
			"byteLength":204,
			"byteOffset":27732
		},
		{
			"buffer":0,
			"byteLength":612,
			"byteOffset":27936
		},
		{
			"buffer":0,
			"byteLength":8,
			"byteOffset":28548
		},
		{
			"buffer":0,
			"byteLength":32,
			"byteOffset":28556
		},
		{
			"buffer":0,
			"byteLength":612,
			"byteOffset":28588
		},
		{
			"buffer":0,
			"byteLength":24,
			"byteOffset":29200
		},
		{
			"buffer":0,
			"byteLength":32,
			"byteOffset":29224
		},
		{
			"buffer":0,
			"byteLength":24,
			"byteOffset":29256
		},
		{
			"buffer":0,
			"byteLength":24,
			"byteOffset":29280
		},
		{
			"buffer":0,
			"byteLength":32,
			"byteOffset":29304
		},
		{
			"buffer":0,
			"byteLength":24,
			"byteOffset":29336
		},
		{
			"buffer":0,
			"byteLength":24,
			"byteOffset":29360
		},
		{
			"buffer":0,
			"byteLength":32,
			"byteOffset":29384
		},
		{
			"buffer":0,
			"byteLength":24,
			"byteOffset":29416
		},
		{
			"buffer":0,
			"byteLength":60,
			"byteOffset":29440
		},
		{
			"buffer":0,
			"byteLength":180,
			"byteOffset":29500
		},
		{
			"buffer":0,
			"byteLength":240,
			"byteOffset":29680
		},
		{
			"buffer":0,
			"byteLength":180,
			"byteOffset":29920
		},
		{
			"buffer":0,
			"byteLength":8,
			"byteOffset":30100
		},
		{
			"buffer":0,
			"byteLength":24,
			"byteOffset":30108
		},
		{
			"buffer":0,
			"byteLength":240,
			"byteOffset":30132
		},
		{
			"buffer":0,
			"byteLength":180,
			"byteOffset":30372
		},
		{
			"buffer":0,
			"byteLength":180,
			"byteOffset":30552
		},
		{
			"buffer":0,
			"byteLength":32,
			"byteOffset":30732
		},
		{
			"buffer":0,
			"byteLength":24,
			"byteOffset":30764
		}
	],
	"buffers":[
		{
			"byteLength":30788,
			"uri":"test.bin"
		}
	]
}
