# Blender 4.2.3 LTS
# www.blender.org
mtllib trolley.mtl
o Cube
v 1.000000 0.300000 -1.212332
v 1.000000 -0.700000 -1.500000
v 1.000000 0.300000 1.500000
v 1.000000 -0.700000 1.500000
v -0.854426 0.300000 -1.228122
v -1.000000 -0.700000 -1.500000
v -1.000000 0.300000 1.500000
v -1.000000 -0.700000 1.500000
v -1.000000 -0.700000 -0.827789
v -1.000000 -0.700000 1.127791
v 1.000000 0.300000 -0.827789
v 1.000000 0.300000 1.127791
v -1.000000 0.300000 1.127791
v -1.000000 0.300000 -0.827789
v 1.000000 -0.700000 1.127791
v 1.000000 -0.700000 -0.827789
v 0.333333 -0.700000 -1.500000
v -0.333333 -0.700000 -1.500000
v 0.333333 0.300000 1.500000
v -0.333333 0.300000 1.500000
v -0.333333 -0.700000 1.500000
v 0.333333 -0.700000 1.500000
v -0.055758 0.300000 -1.500000
v 0.148329 0.300000 -1.500000
v 0.333333 -0.700000 -0.827789
v -0.333333 -0.700000 -0.827789
v 0.333333 -0.700000 1.127791
v -0.333333 -0.700000 1.127791
v -0.702658 0.300000 -1.102539
v 0.812130 0.300000 -1.102539
v -0.702658 0.300000 1.224261
v 0.812130 0.300000 1.224261
v -0.702658 -0.285621 -1.102539
v 0.812130 -0.285621 -1.102539
v -0.702658 -0.285621 1.224261
v 0.812130 -0.285621 1.224261
vn -0.0000 1.0000 -0.0000
vn -0.0000 -0.0000 1.0000
vn -0.9869 0.0900 -0.1339
vn -0.0000 -1.0000 -0.0000
vn 1.0000 -0.0000 -0.0000
vn 0.1839 0.1566 -0.9704
vn -1.0000 -0.0000 -0.0000
vn -0.1798 0.1698 -0.9689
vn -0.0000 -0.0000 -1.0000
vt 0.791667 0.666667
vt 0.875000 0.666667
vt 0.875000 0.750000
vt 0.791667 0.750000
vt 0.375000 0.916667
vt 0.625000 0.916667
vt 0.625000 1.000000
vt 0.375000 1.000000
vt 0.375000 0.166667
vt 0.625000 0.166667
vt 0.625000 0.250000
vt 0.375000 0.250000
vt 0.291667 0.666667
vt 0.375000 0.666667
vt 0.375000 0.750000
vt 0.291667 0.750000
vt 0.625000 0.666667
vt 0.625000 0.750000
vt 0.375000 0.416667
vt 0.625000 0.416667
vt 0.625000 0.500000
vt 0.375000 0.500000
vt 0.625000 0.583333
vt 0.375000 0.583333
vt 0.291667 0.500000
vt 0.291667 0.583333
vt 0.375000 0.000000
vt 0.625000 0.000000
vt 0.625000 0.083333
vt 0.375000 0.083333
vt 0.791667 0.500000
vt 0.875000 0.500000
vt 0.875000 0.583333
vt 0.791667 0.583333
vt 0.708333 0.583333
vt 0.708333 0.666667
vt 0.708333 0.500000
vt 0.125000 0.583333
vt 0.208333 0.583333
vt 0.208333 0.666667
vt 0.125000 0.666667
vt 0.125000 0.500000
vt 0.208333 0.500000
vt 0.625000 0.333333
vt 0.375000 0.333333
vt 0.208333 0.750000
vt 0.125000 0.750000
vt 0.625000 0.833333
vt 0.375000 0.833333
vt 0.708333 0.750000
s 0
usemtl Material
f 31/1/1 13/2/1 7/3/1 20/4/1
f 21/5/2 20/6/2 7/7/2 8/8/2
f 9/9/3 14/10/3 5/11/3 6/12/3
f 27/13/4 15/14/4 4/15/4 22/16/4
f 15/14/5 12/17/5 3/18/5 4/15/5
f 17/19/6 24/20/6 1/21/6 2/22/6
f 2/22/5 1/21/5 11/23/5 16/24/5
f 16/24/5 11/23/5 12/17/5 15/14/5
f 17/25/4 2/22/4 16/24/4 25/26/4
f 25/26/4 16/24/4 15/14/4 27/13/4
f 8/27/7 7/28/7 13/29/7 10/30/7
f 10/30/7 13/29/7 14/10/7 9/9/7
f 23/31/1 5/32/1 14/33/1 29/34/1
f 29/34/1 14/33/1 13/2/1 31/1/1
f 11/23/1 30/35/1 32/36/1 12/17/1
f 29/34/5 31/1/5 35/1/5 33/34/5
f 1/21/1 24/37/1 30/35/1 11/23/1
f 24/37/1 23/31/1 29/34/1 30/35/1
f 9/38/4 26/39/4 28/40/4 10/41/4
f 26/39/4 25/26/4 27/13/4 28/40/4
f 6/42/4 18/43/4 26/39/4 9/38/4
f 18/43/4 17/25/4 25/26/4 26/39/4
f 6/12/8 5/11/8 23/44/8 18/45/8
f 18/45/9 23/44/9 24/20/9 17/19/9
f 10/41/4 28/40/4 21/46/4 8/47/4
f 28/40/4 27/13/4 22/16/4 21/46/4
f 4/15/2 3/18/2 19/48/2 22/49/2
f 22/49/2 19/48/2 20/6/2 21/5/2
f 12/17/1 32/36/1 19/50/1 3/18/1
f 32/36/1 31/1/1 20/4/1 19/50/1
f 34/35/1 33/34/1 35/1/1 36/36/1
f 31/1/9 32/36/9 36/36/9 35/1/9
f 30/35/2 29/34/2 33/34/2 34/35/2
f 32/36/7 30/35/7 34/35/7 36/36/7
