{
	"asset":
	{
		"version": "2.0",
		"generator": "Unreal Engine 5.6.0"
	},
	"scene": 0,
	"accessors": [
		{
			"bufferView": 0,
			"count": 26496,
			"type": "SCALAR",
			"componentType": 5123
		},
		{
			"bufferView": 1,
			"count": 4649,
			"type": "VEC3",
			"componentType": 5126,
			"min": [ 0.00668189861, 0.211350277, 0.00868190452 ],
			"max": [ 0.289318085, 0.496649683, 0.291318089 ]
		},
		{
			"bufferView": 2,
			"count": 4649,
			"type": "VEC3",
			"componentType": 5126
		},
		{
			"bufferView": 3,
			"count": 4649,
			"type": "VEC4",
			"componentType": 5126
		},
		{
			"bufferView": 4,
			"count": 4649,
			"type": "VEC2",
			"componentType": 5126
		},
		{
			"bufferView": 5,
			"count": 4649,
			"type": "VEC2",
			"componentType": 5126
		},
		{
			"bufferView": 6,
			"count": 26496,
			"type": "SCALAR",
			"componentType": 5123
		},
		{
			"bufferView": 7,
			"count": 4649,
			"type": "VEC3",
			"componentType": 5126,
			"min": [ -0.284318089, 0.211350277, 0.00868190452 ],
			"max": [ -0.00168189278, 0.496649683, 0.291318089 ]
		},
		{
			"bufferView": 8,
			"count": 4649,
			"type": "VEC3",
			"componentType": 5126
		},
		{
			"bufferView": 9,
			"count": 4649,
			"type": "VEC4",
			"componentType": 5126
		},
		{
			"bufferView": 10,
			"count": 4649,
			"type": "VEC2",
			"componentType": 5126
		},
		{
			"bufferView": 11,
			"count": 4649,
			"type": "VEC2",
			"componentType": 5126
		},
		{
			"bufferView": 12,
			"count": 26496,
			"type": "SCALAR",
			"componentType": 5123
		},
		{
			"bufferView": 13,
			"count": 4649,
			"type": "VEC3",
			"componentType": 5126,
			"min": [ -0.284318089, 0.211350277, -0.289318085 ],
			"max": [ -0.00168189278, 0.496649683, -0.00668189256 ]
		},
		{
			"bufferView": 14,
			"count": 4649,
			"type": "VEC3",
			"componentType": 5126
		},
		{
			"bufferView": 15,
			"count": 4649,
			"type": "VEC4",
			"componentType": 5126
		},
		{
			"bufferView": 16,
			"count": 4649,
			"type": "VEC2",
			"componentType": 5126
		},
		{
			"bufferView": 17,
			"count": 4649,
			"type": "VEC2",
			"componentType": 5126
		},
		{
			"bufferView": 18,
			"count": 6432,
			"type": "SCALAR",
			"componentType": 5123
		},
		{
			"bufferView": 19,
			"count": 2826,
			"type": "VEC3",
			"componentType": 5126,
			"min": [ -0.300000012, -0.399999976, -0.300000012 ],
			"max": [ 0.300000012, 0.200000018, 0.300000012 ]
		},
		{
			"bufferView": 20,
			"count": 2826,
			"type": "VEC3",
			"componentType": 5126
		},
		{
			"bufferView": 21,
			"count": 2826,
			"type": "VEC4",
			"componentType": 5126
		},
		{
			"bufferView": 22,
			"count": 2826,
			"type": "VEC2",
			"componentType": 5126
		},
		{
			"bufferView": 23,
			"count": 2826,
			"type": "VEC2",
			"componentType": 5126
		},
		{
			"bufferView": 24,
			"count": 26496,
			"type": "SCALAR",
			"componentType": 5123
		},
		{
			"bufferView": 25,
			"count": 4649,
			"type": "VEC3",
			"componentType": 5126,
			"min": [ 0.00668189861, 0.211350277, -0.289318085 ],
			"max": [ 0.289318085, 0.496649683, -0.00668189256 ]
		},
		{
			"bufferView": 26,
			"count": 4649,
			"type": "VEC3",
			"componentType": 5126
		},
		{
			"bufferView": 27,
			"count": 4649,
			"type": "VEC4",
			"componentType": 5126
		},
		{
			"bufferView": 28,
			"count": 4649,
			"type": "VEC2",
			"componentType": 5126
		},
		{
			"bufferView": 29,
			"count": 4649,
			"type": "VEC2",
			"componentType": 5126
		}
	],
	"buffers": [
		{
			"uri": "macbeth_chart_scene.bin",
			"byteLength": 1424464
		}
	],
	"bufferViews": [
		{
			"buffer": 0,
			"byteLength": 52992,
			"target": 34963
		},
		{
			"buffer": 0,
			"byteLength": 55788,
			"byteOffset": 52992,
			"target": 34962
		},
		{
			"buffer": 0,
			"byteLength": 55788,
			"byteOffset": 108780,
			"target": 34962
		},
		{
			"buffer": 0,
			"byteLength": 74384,
			"byteOffset": 164568,
			"target": 34962
		},
		{
			"buffer": 0,
			"byteLength": 37192,
			"byteOffset": 238952,
			"target": 34962
		},
		{
			"buffer": 0,
			"byteLength": 37192,
			"byteOffset": 276144,
			"target": 34962
		},
		{
			"buffer": 0,
			"byteLength": 52992,
			"byteOffset": 313336,
			"target": 34963
		},
		{
			"buffer": 0,
			"byteLength": 55788,
			"byteOffset": 366328,
			"target": 34962
		},
		{
			"buffer": 0,
			"byteLength": 55788,
			"byteOffset": 422116,
			"target": 34962
		},
		{
			"buffer": 0,
			"byteLength": 74384,
			"byteOffset": 477904,
			"target": 34962
		},
		{
			"buffer": 0,
			"byteLength": 37192,
			"byteOffset": 552288,
			"target": 34962
		},
		{
			"buffer": 0,
			"byteLength": 37192,
			"byteOffset": 589480,
			"target": 34962
		},
		{
			"buffer": 0,
			"byteLength": 52992,
			"byteOffset": 626672,
			"target": 34963
		},
		{
			"buffer": 0,
			"byteLength": 55788,
			"byteOffset": 679664,
			"target": 34962
		},
		{
			"buffer": 0,
			"byteLength": 55788,
			"byteOffset": 735452,
			"target": 34962
		},
		{
			"buffer": 0,
			"byteLength": 74384,
			"byteOffset": 791240,
			"target": 34962
		},
		{
			"buffer": 0,
			"byteLength": 37192,
			"byteOffset": 865624,
			"target": 34962
		},
		{
			"buffer": 0,
			"byteLength": 37192,
			"byteOffset": 902816,
			"target": 34962
		},
		{
			"buffer": 0,
			"byteLength": 12864,
			"byteOffset": 940008,
			"target": 34963
		},
		{
			"buffer": 0,
			"byteLength": 33912,
			"byteOffset": 952872,
			"target": 34962
		},
		{
			"buffer": 0,
			"byteLength": 33912,
			"byteOffset": 986784,
			"target": 34962
		},
		{
			"buffer": 0,
			"byteLength": 45216,
			"byteOffset": 1020696,
			"target": 34962
		},
		{
			"buffer": 0,
			"byteLength": 22608,
			"byteOffset": 1065912,
			"target": 34962
		},
		{
			"buffer": 0,
			"byteLength": 22608,
			"byteOffset": 1088520,
			"target": 34962
		},
		{
			"buffer": 0,
			"byteLength": 52992,
			"byteOffset": 1111128,
			"target": 34963
		},
		{
			"buffer": 0,
			"byteLength": 55788,
			"byteOffset": 1164120,
			"target": 34962
		},
		{
			"buffer": 0,
			"byteLength": 55788,
			"byteOffset": 1219908,
			"target": 34962
		},
		{
			"buffer": 0,
			"byteLength": 74384,
			"byteOffset": 1275696,
			"target": 34962
		},
		{
			"buffer": 0,
			"byteLength": 37192,
			"byteOffset": 1350080,
			"target": 34962
		},
		{
			"buffer": 0,
			"byteLength": 37192,
			"byteOffset": 1387272,
			"target": 34962
		}
	],
	"images": [
		{
			"uri": "Color_checker.png"
		}
	],
	"materials": [
		{
			"name": "M_GreyBall",
			"pbrMetallicRoughness":
			{
				"baseColorFactor": [ 0.180000007, 0.180000007, 0.180000007, 1 ],
				"metallicFactor": 0
			}
		},
		{
			"name": "M_ChromeBall",
			"pbrMetallicRoughness":
			{
				"roughnessFactor": 0.100000001
			}
		},
		{
			"name": "M_ClearCoatBlack",
			"pbrMetallicRoughness":
			{
				"baseColorFactor": [ 0, 0, 0, 1 ],
				"metallicFactor": 0,
				"roughnessFactor": 0
			}
		},
		{
			"name": "M_ColorGrid",
			"pbrMetallicRoughness":
			{
				"baseColorTexture":
				{
					"index": 0
				},
				"metallicFactor": 0,
				"roughnessFactor": 0.949999988
			},
			"extensions":
			{
				"KHR_materials_specular":
				{
					"specularFactor": 0.200000003
				}
			}
		},
		{
			"name": "M_ClearCoat",
			"pbrMetallicRoughness":
			{
				"baseColorFactor": [ 0.180000007, 0.180000007, 0.180000007, 1 ],
				"roughnessFactor": 0.649999976
			},
			"extensions":
			{
				"KHR_materials_clearcoat":
				{
					"clearcoatFactor": 1
				}
			}
		}
	],
	"meshes": [
		{
			"name": "SM_ColorCalibrator",
			"primitives": [
				{
					"attributes":
					{
						"POSITION": 1,
						"NORMAL": 2,
						"TANGENT": 3,
						"TEXCOORD_0": 4,
						"TEXCOORD_1": 5
					},
					"indices": 0,
					"material": 0
				},
				{
					"attributes":
					{
						"POSITION": 7,
						"NORMAL": 8,
						"TANGENT": 9,
						"TEXCOORD_0": 10,
						"TEXCOORD_1": 11
					},
					"indices": 6,
					"material": 1
				},
				{
					"attributes":
					{
						"POSITION": 13,
						"NORMAL": 14,
						"TANGENT": 15,
						"TEXCOORD_0": 16,
						"TEXCOORD_1": 17
					},
					"indices": 12,
					"material": 2
				},
				{
					"attributes":
					{
						"POSITION": 19,
						"NORMAL": 20,
						"TANGENT": 21,
						"TEXCOORD_0": 22,
						"TEXCOORD_1": 23
					},
					"indices": 18,
					"material": 3
				},
				{
					"attributes":
					{
						"POSITION": 25,
						"NORMAL": 26,
						"TANGENT": 27,
						"TEXCOORD_0": 28,
						"TEXCOORD_1": 29
					},
					"indices": 24,
					"material": 4
				}
			]
		}
	],
	"nodes": [
		{
			"name": "Brush0",
			"translation": [ -2, 0.899999976, 0 ]
		},
		{
			"name": "DefaultPhysicsVolume0"
		},
		{
			"name": "AbstractNavData-Default"
		},
		{
			"name": "SM_ColorCalibrator",
			"mesh": 0
		}
	],
	"samplers": [
		{
			"minFilter": 9987,
			"magFilter": 9729
		}
	],
	"scenes": [
		{
			"name": "macbeth_chart_scene",
			"nodes": [ 0, 1, 2, 3 ]
		}
	],
	"textures": [
		{
			"name": "Color_checker",
			"sampler": 0,
			"source": 0
		}
	],
	"extensionsUsed": [
		"KHR_materials_specular",
		"KHR_materials_clearcoat"
	]
}