{
	"asset":{
		"generator":"Khronos glTF Blender I/O v4.4.56",
		"version":"2.0"
	},
	"scene":0,
	"scenes":[
		{
			"name":"Scene",
			"nodes":[
				0
			]
		}
	],
	"nodes":[
		{
			"mesh":0,
			"name":"sphere",
			"translation":[
				-20,
				-20,
				20
			]
		}
	],
	"materials":[
		{
			"doubleSided":true,
			"name":"Material.001",
			"pbrMetallicRoughness":{
				"baseColorFactor":[
					0.800000011920929,
					0.800000011920929,
					0.800000011920929,
					1
				],
				"roughnessFactor":0.4000000059604645
			}
		}
	],
	"meshes":[
		{
			"name":"Sphere.001",
			"primitives":[
				{
					"attributes":{
						"POSITION":0,
						"NORMAL":1,
						"TEXCOORD_0":2
					},
					"indices":3,
					"material":0
				}
			]
		}
	],
	"accessors":[
		{
			"bufferView":0,
			"componentType":5126,
			"count":200981,
			"max":[
				40.09999465942383,
				40.099998474121094,
				0.10000000149011612
			],
			"min":[
				-0.09999999403953552,
				-0.10000000149011612,
				-40.099998474121094
			],
			"type":"VEC3"
		},
		{
			"bufferView":1,
			"componentType":5126,
			"count":200981,
			"type":"VEC3"
		},
		{
			"bufferView":2,
			"componentType":5126,
			"count":200981,
			"type":"VEC2"
		},
		{
			"bufferView":3,
			"componentType":5125,
			"count":894432,
			"type":"SCALAR"
		}
	],
	"bufferViews":[
		{
			"buffer":0,
			"byteLength":2411772,
			"byteOffset":0,
			"target":34962
		},
		{
			"buffer":0,
			"byteLength":2411772,
			"byteOffset":2411772,
			"target":34962
		},
		{
			"buffer":0,
			"byteLength":1607848,
			"byteOffset":4823544,
			"target":34962
		},
		{
			"buffer":0,
			"byteLength":3577728,
			"byteOffset":6431392,
			"target":34963
		}
	],
	"buffers":[
		{
			"byteLength":10009120,
			"uri":"probe_sphere.bin"
		}
	]
}
