# Blender 5.1.2
# www.blender.org
mtllib cornell-box.mtl
o area_light
v -0.884011 5.319334 -2.517968
v -0.884011 5.318497 -3.567968
v 0.415989 5.318497 -3.567968
v 0.415989 5.319334 -2.517968
vn -0.0000 -1.0000 0.0008
s 1
usemtl Light
f 2//1 4//1 1//1
f 2//1 3//1 4//1
o back_wall
v -2.950011 -0.162686 -5.835598
v 2.545989 -0.162686 -5.835598
v 2.545989 5.325313 -5.839967
v -3.014011 5.325313 -5.839967
vn -0.0000 0.0008 1.0000
s 1
usemtl Khaki
f 5//2 7//2 8//2
f 5//2 6//2 7//2
o ceiling
v -3.014011 5.329765 -0.247969
v -3.014011 5.325313 -5.839969
v 2.545989 5.325313 -5.839969
v 2.545989 5.329765 -0.247969
vn -0.0000 -1.0000 0.0008
s 1
usemtl Khaki
f 10//3 12//3 9//3
f 10//3 11//3 12//3
o floor
v -2.982011 -0.158233 -0.243599
v 2.545989 -0.158233 -0.243599
v 2.545989 -0.162686 -5.835598
v -2.950011 -0.162686 -5.835598
vn -0.0000 1.0000 -0.0008
s 1
usemtl Khaki
f 14//4 16//4 13//4
f 14//4 15//4 16//4
o left_wall
v -2.982011 -0.158233 -0.243599
v -2.950011 -0.162686 -5.835598
v -3.014011 5.325313 -5.839969
v -3.014011 5.329765 -0.247969
vn 1.0000 0.0087 0.0028
vn 1.0000 0.0088 0.0029
vn 1.0000 0.0058 -0.0000
vn 0.9999 0.0117 0.0057
s 1
usemtl BloodyRed
f 17//5 19//6 20//7
f 17//5 18//8 19//6
o right_wall
v 2.545989 -0.162686 -5.835598
v 2.545989 -0.158233 -0.243599
v 2.545989 5.329765 -0.247969
v 2.545989 5.325313 -5.839969
vn -1.0000 -0.0000 -0.0000
s 1
usemtl DarkGreen
f 22//9 24//9 21//9
f 22//9 23//9 24//9
o short_box
v 1.245989 1.491249 -0.894913
v 1.725989 1.489975 -2.494912
v 0.145989 1.489601 -2.964912
v -0.354011 1.490859 -1.384912
v -0.354011 -0.159141 -1.383599
v -0.354011 1.490859 -1.384912
v 0.145989 1.489601 -2.964912
v 0.145989 -0.160399 -2.963598
v 1.245989 -0.158750 -0.893599
v 1.245989 1.491249 -0.894913
v -0.354011 1.490859 -1.384912
v -0.354011 -0.159141 -1.383599
v 1.725989 -0.160024 -2.493598
v 1.725989 1.489975 -2.494912
v 1.245989 1.491249 -0.894913
v 1.245989 -0.158750 -0.893599
v 0.145989 -0.160399 -2.963598
v 0.145989 1.489601 -2.964912
v 1.725989 1.489975 -2.494912
v 1.725989 -0.160024 -2.493598
vn -0.0000 1.0000 -0.0008
vn -0.9534 -0.0002 -0.3017
vn -0.2928 0.0008 0.9562
vn 0.9578 0.0002 0.2873
vn 0.2851 -0.0008 -0.9585
s 1
usemtl Khaki
f 25//10 27//10 28//10
f 30//11 32//11 29//11
f 34//12 36//12 33//12
f 38//13 40//13 37//13
f 42//14 44//14 41//14
f 25//10 26//10 27//10
f 30//11 31//11 32//11
f 34//12 35//12 36//12
f 38//13 39//13 40//13
f 42//14 43//14 44//14
o tall_box
v -1.684011 3.139799 -2.716226
v -0.104011 3.139409 -3.206226
v -0.594011 3.138134 -4.806226
v -2.174011 3.138533 -4.306226
v -1.684011 -0.160200 -2.713598
v -1.684011 3.139799 -2.716226
v -2.174011 3.138533 -4.306226
v -2.174011 -0.161466 -4.303598
v -2.174011 -0.161466 -4.303598
v -2.174011 3.138533 -4.306226
v -0.594011 3.138134 -4.806226
v -0.594011 -0.161864 -4.803598
v -0.594011 -0.161864 -4.803598
v -0.594011 3.138134 -4.806226
v -0.104011 3.139409 -3.206226
v -0.104011 -0.160590 -3.203598
v -0.104011 -0.160590 -3.203598
v -0.104011 3.139409 -3.206226
v -1.684011 3.139799 -2.716226
v -1.684011 -0.160200 -2.713598
vn -0.0000 1.0000 -0.0008
vn -0.9556 0.0002 0.2945
vn -0.3017 -0.0008 -0.9534
vn 0.9562 -0.0002 -0.2928
vn 0.2962 0.0008 0.9551
s 1
usemtl Khaki
f 46//15 48//15 45//15
f 49//16 51//16 52//16
f 54//17 56//17 53//17
f 58//18 60//18 57//18
f 62//19 64//19 61//19
f 46//15 47//15 48//15
f 49//16 50//16 51//16
f 54//17 55//17 56//17
f 58//18 59//18 60//18
f 62//19 63//19 64//19
